<svg width="109" height="109" viewBox="0 0 109 109" fill="none" xmlns="http://www.w3.org/2000/svg">
<path d="M89.6752 18.1667C92.3854 18.1667 94.9846 19.2433 96.901 21.1597C98.8174 23.076 99.894 25.6752 99.894 28.3854V58.156C97.8661 56.2138 95.5723 54.5699 93.0815 53.2737V28.3854C93.0815 27.482 92.7226 26.6156 92.0838 25.9768C91.445 25.338 90.5786 24.9792 89.6752 24.9792H19.3021C18.3987 24.9792 17.5323 25.338 16.8935 25.9768C16.2547 26.6156 15.8959 27.482 15.8959 28.3854V80.6373C15.8959 82.5175 17.4219 84.0435 19.3021 84.0435L31.7872 84.039L31.7917 71.5312C31.7918 69.5366 32.5419 67.6149 33.893 66.1476C35.2442 64.6803 37.0977 63.7747 39.0856 63.6106L39.7396 63.5833H54.6C51.5609 68.3274 49.9497 73.8451 49.9584 79.4791C49.9584 83.5121 50.7668 87.3544 52.2292 90.856H19.3021C16.5919 90.856 13.9928 89.7794 12.0764 87.863C10.16 85.9466 9.08337 83.3475 9.08337 80.6373V28.3854C9.08337 25.6752 10.16 23.076 12.0764 21.1597C13.9928 19.2433 16.5919 18.1667 19.3021 18.1667H89.6752ZM54.5 31.7917C58.1136 31.7917 61.5792 33.2271 64.1344 35.7823C66.6896 38.3375 68.125 41.8031 68.125 45.4167C68.125 49.0302 66.6896 52.4958 64.1344 55.051C61.5792 57.6062 58.1136 59.0416 54.5 59.0416C50.8865 59.0416 47.4209 57.6062 44.8657 55.051C42.3105 52.4958 40.875 49.0302 40.875 45.4167C40.875 41.8031 42.3105 38.3375 44.8657 35.7823C47.4209 33.2271 50.8865 31.7917 54.5 31.7917ZM104.458 79.4791C104.458 86.104 101.827 92.4576 97.1421 97.1421C92.4576 101.827 86.1041 104.458 79.4792 104.458C72.8543 104.458 66.5008 101.827 61.8163 97.1421C57.1318 92.4576 54.5 86.104 54.5 79.4791C54.5 72.8543 57.1318 66.5007 61.8163 61.8162C66.5008 57.1317 72.8543 54.5 79.4792 54.5C86.1041 54.5 92.4576 57.1317 97.1421 61.8162C101.827 66.5007 104.458 72.8543 104.458 79.4791ZM81.9998 65.4908C81.8439 64.9425 81.5135 64.46 81.0586 64.1164C80.6037 63.7729 80.0492 63.587 79.4792 63.587C78.9092 63.587 78.3547 63.7729 77.8998 64.1164C77.4449 64.46 77.1145 64.9425 76.9586 65.4908L74.4289 73.6113H66.2402C63.6697 73.6113 62.6069 77.0357 64.6825 78.6072L71.3042 83.6257L68.7745 91.7417C67.9797 94.2895 70.7774 96.4105 72.8575 94.8345L79.4792 89.8205L86.101 94.8345C88.181 96.4105 90.9787 94.2895 90.1839 91.7462L87.6542 83.6257L94.276 78.6117C96.356 77.0357 95.2887 73.6113 92.7182 73.6113H84.5295L81.9998 65.4954V65.4908Z" fill="#EDF0FD"/>
</svg>
