<svg width="208" height="98" viewBox="0 0 208 98" fill="none" xmlns="http://www.w3.org/2000/svg">
<path d="M21.04 26.44L19.68 25.24C18.8267 26.2 17.8267 27.0133 16.68 27.68C15.56 28.32 14.28 28.64 12.84 28.64C11.6667 28.64 10.5733 28.4133 9.56 27.96C8.54667 27.5067 7.65333 26.88 6.88 26.08C6.13333 25.28 5.53333 24.3467 5.08 23.28C4.65333 22.1867 4.44 21.0267 4.44 19.8V19.72C4.44 18.4933 4.65333 17.3467 5.08 16.28C5.50667 15.2133 6.08 14.2933 6.8 13.52C7.54667 12.72 8.41333 12.0933 9.4 11.64C10.4133 11.1867 11.5067 10.96 12.68 10.96C14.2 10.96 15.4933 11.2933 16.56 11.96C17.6267 12.6267 18.6 13.4133 19.48 14.32L20.88 12.88C20.4 12.3733 19.88 11.8933 19.32 11.44C18.7867 10.9867 18.1867 10.5867 17.52 10.24C16.8533 9.89333 16.12 9.62667 15.32 9.44C14.5467 9.22667 13.68 9.12 12.72 9.12C11.2533 9.12 9.88 9.41333 8.6 10C7.34667 10.56 6.25333 11.3333 5.32 12.32C4.38667 13.3067 3.65333 14.44 3.12 15.72C2.58667 17 2.32 18.36 2.32 19.8V19.88C2.32 21.32 2.58667 22.68 3.12 23.96C3.65333 25.24 4.38667 26.36 5.32 27.32C6.25333 28.28 7.34667 29.0533 8.6 29.64C9.88 30.2 11.2533 30.48 12.72 30.48C14.5867 30.48 16.1733 30.1067 17.48 29.36C18.8133 28.5867 20 27.6133 21.04 26.44ZM45.5456 19.8V19.72C45.5456 18.28 45.279 16.92 44.7456 15.64C44.239 14.36 43.519 13.24 42.5856 12.28C41.6523 11.32 40.5456 10.56 39.2656 10C38.0123 9.41333 36.6256 9.12 35.1056 9.12C33.5856 9.12 32.1856 9.41333 30.9056 10C29.6256 10.56 28.5056 11.3333 27.5456 12.32C26.6123 13.3067 25.879 14.44 25.3456 15.72C24.839 17 24.5856 18.36 24.5856 19.8V19.88C24.5856 21.32 24.839 22.68 25.3456 23.96C25.879 25.24 26.6123 26.36 27.5456 27.32C28.479 28.28 29.5723 29.0533 30.8256 29.64C32.1056 30.2 33.5056 30.48 35.0256 30.48C36.5456 30.48 37.9456 30.2 39.2256 29.64C40.5056 29.0533 41.6123 28.2667 42.5456 27.28C43.5056 26.2933 44.239 25.16 44.7456 23.88C45.279 22.6 45.5456 21.24 45.5456 19.8ZM43.4256 19.88C43.4256 21.08 43.2123 22.2133 42.7856 23.28C42.3856 24.3467 41.8123 25.28 41.0656 26.08C40.3456 26.8533 39.4656 27.48 38.4256 27.96C37.4123 28.4133 36.3056 28.64 35.1056 28.64C33.9323 28.64 32.8256 28.4133 31.7856 27.96C30.7723 27.5067 29.879 26.88 29.1056 26.08C28.359 25.28 27.7723 24.3467 27.3456 23.28C26.919 22.1867 26.7056 21.0267 26.7056 19.8V19.72C26.7056 18.52 26.9056 17.3867 27.3056 16.32C27.7323 15.2533 28.3056 14.3333 29.0256 13.56C29.7723 12.76 30.6523 12.1333 31.6656 11.68C32.7056 11.2 33.8256 10.96 35.0256 10.96C36.199 10.96 37.2923 11.1867 38.3056 11.64C39.3456 12.0933 40.239 12.72 40.9856 13.52C41.759 14.32 42.359 15.2667 42.7856 16.36C43.2123 17.4267 43.4256 18.5733 43.4256 19.8V19.88ZM82.4116 30V17.64C82.4116 16.36 82.2249 15.2 81.8516 14.16C81.5049 13.0933 80.9849 12.2 80.2916 11.48C79.6249 10.7333 78.7982 10.16 77.8116 9.76C76.8516 9.33333 75.7716 9.12 74.5716 9.12C73.6116 9.12 72.7449 9.24 71.9716 9.48C71.2249 9.72 70.5449 10.0533 69.9316 10.48C69.3449 10.88 68.8249 11.3467 68.3716 11.88C67.9182 12.4133 67.5316 12.96 67.2116 13.52C66.9182 12.9333 66.5582 12.3733 66.1316 11.84C65.7316 11.3067 65.2516 10.84 64.6916 10.44C64.1316 10.04 63.4782 9.72 62.7316 9.48C62.0116 9.24 61.2116 9.12 60.3316 9.12C59.4249 9.12 58.6116 9.24 57.8916 9.48C57.1982 9.69333 56.5849 10 56.0516 10.4C55.5182 10.7733 55.0382 11.2133 54.6116 11.72C54.2116 12.2 53.8516 12.7067 53.5316 13.24V9.6H51.5716V30H53.5316V18.24C53.5316 17.2 53.6916 16.24 54.0116 15.36C54.3582 14.48 54.8249 13.7067 55.4116 13.04C55.9982 12.3733 56.6916 11.8533 57.4916 11.48C58.2916 11.1067 59.1449 10.92 60.0516 10.92C61.8916 10.92 63.3449 11.5333 64.4116 12.76C65.4782 13.96 66.0116 15.6267 66.0116 17.76V30H67.9716V18.12C67.9716 16.9733 68.1449 15.96 68.4916 15.08C68.8382 14.1733 69.3049 13.4133 69.8916 12.8C70.4782 12.1867 71.1582 11.72 71.9316 11.4C72.7316 11.08 73.5582 10.92 74.4116 10.92C76.3049 10.92 77.7849 11.5333 78.8516 12.76C79.9182 13.96 80.4516 15.6667 80.4516 17.88V30H82.4116ZM109.178 19.8V19.72C109.178 18.28 108.912 16.92 108.378 15.64C107.872 14.36 107.152 13.24 106.218 12.28C105.285 11.32 104.178 10.56 102.898 10C101.645 9.41333 100.258 9.12 98.7384 9.12C97.2184 9.12 95.8184 9.41333 94.5384 10C93.2584 10.56 92.1384 11.3333 91.1784 12.32C90.2451 13.3067 89.5118 14.44 88.9784 15.72C88.4718 17 88.2184 18.36 88.2184 19.8V19.88C88.2184 21.32 88.4718 22.68 88.9784 23.96C89.5118 25.24 90.2451 26.36 91.1784 27.32C92.1118 28.28 93.2051 29.0533 94.4584 29.64C95.7384 30.2 97.1384 30.48 98.6584 30.48C100.178 30.48 101.578 30.2 102.858 29.64C104.138 29.0533 105.245 28.2667 106.178 27.28C107.138 26.2933 107.872 25.16 108.378 23.88C108.912 22.6 109.178 21.24 109.178 19.8ZM107.058 19.88C107.058 21.08 106.845 22.2133 106.418 23.28C106.018 24.3467 105.445 25.28 104.698 26.08C103.978 26.8533 103.098 27.48 102.058 27.96C101.045 28.4133 99.9384 28.64 98.7384 28.64C97.5651 28.64 96.4584 28.4133 95.4184 27.96C94.4051 27.5067 93.5118 26.88 92.7384 26.08C91.9918 25.28 91.4051 24.3467 90.9784 23.28C90.5518 22.1867 90.3384 21.0267 90.3384 19.8V19.72C90.3384 18.52 90.5384 17.3867 90.9384 16.32C91.3651 15.2533 91.9384 14.3333 92.6584 13.56C93.4051 12.76 94.2851 12.1333 95.2984 11.68C96.3384 11.2 97.4584 10.96 98.6584 10.96C99.8318 10.96 100.925 11.1867 101.938 11.64C102.978 12.0933 103.872 12.72 104.618 13.52C105.392 14.32 105.992 15.2667 106.418 16.36C106.845 17.4267 107.058 18.5733 107.058 19.8V19.88ZM118.332 16L118.132 16.2L118.652 22.68H119.932L120.292 17.68C121.439 17.5467 122.532 17.28 123.572 16.88C124.612 16.48 125.506 15.9467 126.252 15.28C127.026 14.5867 127.639 13.76 128.092 12.8C128.546 11.84 128.772 10.7333 128.772 9.48C128.772 8.41333 128.559 7.4 128.132 6.44C127.732 5.48 127.159 4.65333 126.412 3.96C125.666 3.24 124.746 2.68 123.652 2.28C122.586 1.85333 121.399 1.64 120.092 1.64C117.959 1.64 116.172 2.08 114.732 2.96C113.292 3.84 111.999 4.98667 110.852 6.4L112.292 7.6C113.332 6.32 114.479 5.32 115.732 4.6C116.986 3.85333 118.412 3.48 120.012 3.48C121.026 3.48 121.946 3.64 122.772 3.96C123.599 4.28 124.292 4.72 124.852 5.28C125.439 5.84 125.879 6.49333 126.172 7.24C126.492 7.96 126.652 8.73333 126.652 9.56C126.652 11.5067 125.932 13.0533 124.492 14.2C123.052 15.3467 120.999 15.9467 118.332 16ZM120.612 30V26.6H117.972V30H120.612Z" fill="white"/>
<path d="M30.64 71L18.64 42.8H12.96L0.96 71H7.24L9.8 64.72H21.64L24.2 71H30.64ZM19.44 59.28H12L15.72 50.2L19.44 59.28ZM57.1216 52.76V52.68C57.1216 46.96 53.0816 43 46.4016 43H34.9616V71H41.1216V62.6H45.8016C52.0816 62.6 57.1216 59.24 57.1216 52.76ZM50.8816 52.88C50.8816 55.28 49.0816 57.12 46.0016 57.12H41.1216V48.56H45.8816C48.9616 48.56 50.8816 50.04 50.8816 52.8V52.88ZM90.2003 57V56.92C90.2003 48.96 84.0003 42.52 75.3603 42.52C66.7203 42.52 60.4403 49.04 60.4403 57V57.08C60.4403 65.04 66.6403 71.48 75.2803 71.48C83.9203 71.48 90.2003 64.96 90.2003 57ZM83.7603 57.08C83.7603 61.88 80.3203 65.8 75.3603 65.8C70.4003 65.8 66.8803 61.8 66.8803 57V56.92C66.8803 52.12 70.3203 48.2 75.2803 48.2C80.2403 48.2 83.7603 52.2 83.7603 57V57.08ZM102.105 71V43H95.9447V71H102.105ZM136.382 71L124.382 42.8H118.702L106.702 71H112.982L115.542 64.72H127.382L129.942 71H136.382ZM125.182 59.28H117.742L121.462 50.2L125.182 59.28ZM164.904 71L158.064 61C161.624 59.68 164.064 56.84 164.064 52.32V52.24C164.064 46.48 160.104 43 153.504 43H140.704V71H146.864V62.04H151.704L157.704 71H164.904ZM157.824 52.64C157.824 55 156.104 56.6 153.104 56.6H146.864V48.56H152.984C155.984 48.56 157.824 49.92 157.824 52.56V52.64Z" fill="white"/>
</svg>
