<svg width="85" height="85" viewBox="0 0 85 85" fill="none" xmlns="http://www.w3.org/2000/svg">
<path fill-rule="evenodd" clip-rule="evenodd" d="M55.0051 32.6505C55.2524 32.8972 55.4487 33.1904 55.5826 33.5131C55.7165 33.8358 55.7854 34.1817 55.7854 34.5311C55.7854 34.8805 55.7165 35.2265 55.5826 35.5492C55.4487 35.8719 55.2524 36.165 55.0051 36.4117L39.0676 52.3492C38.8208 52.5966 38.5277 52.7929 38.205 52.9268C37.8823 53.0607 37.5363 53.1296 37.187 53.1296C36.8376 53.1296 36.4916 53.0607 36.1689 52.9268C35.8462 52.7929 35.5531 52.5966 35.3063 52.3492L27.3376 44.3805C27.0906 44.1335 26.8947 43.8403 26.761 43.5177C26.6274 43.195 26.5586 42.8491 26.5586 42.4999C26.5586 42.1506 26.6274 41.8048 26.761 41.4821C26.8947 41.1594 27.0906 40.8662 27.3376 40.6192C27.5845 40.3723 27.8777 40.1764 28.2004 40.0427C28.5231 39.909 28.8689 39.8403 29.2182 39.8403C29.5675 39.8403 29.9133 39.909 30.236 40.0427C30.5587 40.1764 30.8519 40.3723 31.0988 40.6192L37.187 46.7127L51.2438 32.6505C51.4906 32.4031 51.7837 32.2069 52.1064 32.073C52.4291 31.939 52.7751 31.8701 53.1245 31.8701C53.4738 31.8701 53.8198 31.939 54.1425 32.073C54.4652 32.2069 54.7583 32.4031 55.0051 32.6505Z" fill="#6ABDFF"/>
<path d="M54.5749 13.3504L49.6821 8.33543L53.4806 4.62731L56.785 8.01137L61.5131 7.95293C63.5597 7.92871 65.5905 8.31396 67.4861 9.08603C69.3817 9.85809 71.1038 11.0014 72.5511 12.4487C73.9984 13.896 75.1417 15.6181 75.9137 17.5136C76.6858 19.4092 77.0711 21.44 77.0468 23.4867L76.9937 28.2148L80.3725 31.5192C81.8358 32.9492 82.9986 34.6572 83.7925 36.5429C84.5864 38.4287 84.9954 40.4541 84.9954 42.5001C84.9954 44.5462 84.5864 46.5716 83.7925 48.4573C82.9986 50.3431 81.8358 52.0511 80.3725 53.4811L76.9884 56.7854L77.0468 61.5136C77.0711 63.5602 76.6858 65.591 75.9137 67.4866C75.1417 69.3822 73.9984 71.1043 72.5511 72.5516C71.1038 73.9989 69.3817 75.1422 67.4861 75.9142C65.5905 76.6863 63.5597 77.0715 61.5131 77.0473L56.785 76.9942L53.4806 80.3729C52.0506 81.8363 50.3426 82.9991 48.4568 83.793C46.5711 84.5869 44.5457 84.9958 42.4996 84.9958C40.4536 84.9958 38.4282 84.5869 36.5424 83.793C34.6567 82.9991 32.9487 81.8363 31.5187 80.3729L28.2143 76.9889L23.4862 77.0473C21.4396 77.0715 19.4087 76.6863 17.5131 75.9142C15.6176 75.1422 13.8955 73.9989 12.4482 72.5516C11.0009 71.1043 9.8576 69.3822 9.08554 67.4866C8.31347 65.591 7.92822 63.5602 7.95244 61.5136L8.00557 56.7854L4.62682 53.4811C3.16344 52.0511 2.00064 50.3431 1.20675 48.4573C0.412866 46.5716 0.00390625 44.5462 0.00390625 42.5001C0.00390625 40.4541 0.412866 38.4287 1.20675 36.5429C2.00064 34.6572 3.16344 32.9492 4.62682 31.5192L8.01088 28.2148L7.95244 23.4867C7.92822 21.44 8.31347 19.4092 9.08554 17.5136C9.8576 15.6181 11.0009 13.896 12.4482 12.4487C13.8955 11.0014 15.6176 9.85809 17.5131 9.08603C19.4087 8.31396 21.4396 7.92871 23.4862 7.95293L28.2143 8.00606L31.5187 4.62731C32.9487 3.16393 34.6567 2.00113 36.5424 1.20724C38.4282 0.413354 40.4536 0.00439453 42.4996 0.00439453C44.5457 0.00439453 46.5711 0.413354 48.4568 1.20724C50.3426 2.00113 52.0506 3.16393 53.4806 4.62731L49.6821 8.33543C48.7469 7.37805 47.6298 6.61729 46.3963 6.09789C45.1628 5.57849 43.838 5.31092 42.4996 5.31092C41.1613 5.31092 39.8364 5.57849 38.603 6.09789C37.3695 6.61729 36.2523 7.37805 35.3171 8.33543L30.4296 13.3504L23.4171 13.2654C22.0793 13.2505 20.752 13.503 19.5132 14.0083C18.2744 14.5135 17.149 15.2612 16.2032 16.2075C15.2574 17.1538 14.5103 18.2795 14.0057 19.5186C13.5012 20.7577 13.2493 22.0851 13.2649 23.4229L13.3499 30.4248L8.33494 35.3176C7.37756 36.2528 6.6168 37.37 6.0974 38.6035C5.578 39.8369 5.31043 41.1618 5.31043 42.5001C5.31043 43.8385 5.578 45.1633 6.0974 46.3968C6.6168 47.6302 7.37756 48.7474 8.33494 49.6826L13.3499 54.5701L13.2649 61.5826C13.25 62.9204 13.5025 64.2477 14.0078 65.4866C14.513 66.7254 15.2607 67.8507 16.207 68.7965C17.1533 69.7423 18.279 70.4894 19.5181 70.994C20.7572 71.4986 22.0846 71.7505 23.4224 71.7348L30.4243 71.6498L35.3171 76.6648C36.2523 77.6222 37.3695 78.3829 38.603 78.9024C39.8364 79.4218 41.1613 79.6893 42.4996 79.6893C43.838 79.6893 45.1628 79.4218 46.3963 78.9024C47.6298 78.3829 48.7469 77.6222 49.6821 76.6648L54.5696 71.6498L61.5821 71.7348C62.9199 71.7498 64.2472 71.4972 65.4861 70.992C66.7249 70.4867 67.8503 69.739 68.796 68.7928C69.7418 67.8465 70.4889 66.7207 70.9935 65.4816C71.4981 64.2425 71.75 62.9151 71.7343 61.5773L71.6493 54.5754L76.6643 49.6826C77.6217 48.7474 78.3825 47.6302 78.9019 46.3968C79.4213 45.1633 79.6888 43.8385 79.6888 42.5001C79.6888 41.1618 79.4213 39.8369 78.9019 38.6035C78.3825 37.37 77.6217 36.2528 76.6643 35.3176L71.6493 30.4301L71.7343 23.4176C71.7493 22.0798 71.4967 20.7525 70.9915 19.5137C70.4863 18.2749 69.7385 17.1495 68.7923 16.2037C67.846 15.2579 66.7202 14.5108 65.4811 14.0062C64.2421 13.5016 62.9146 13.2498 61.5768 13.2654L54.5749 13.3504Z" fill="#6ABDFF"/>
</svg>
