<svg width="486" height="141" viewBox="0 0 486 141" fill="none" xmlns="http://www.w3.org/2000/svg">
<path d="M155.74 35V34.88C155.74 23.06 146.62 14 133.42 14H117.04V56H133.42C146.62 56 155.74 46.82 155.74 35ZM146.08 35.12C146.08 42.56 140.98 47.66 133.42 47.66H126.28V22.34H133.42C140.98 22.34 146.08 27.56 146.08 35V35.12ZM193.014 40.82V40.7C193.014 31.58 188.094 23.24 177.354 23.24C167.994 23.24 161.454 30.8 161.454 39.98V40.1C161.454 49.94 168.594 56.72 178.254 56.72C184.074 56.72 188.394 54.44 191.394 50.72L186.174 46.1C183.654 48.44 181.434 49.4 178.374 49.4C174.294 49.4 171.414 47.24 170.514 43.1H192.894C192.954 42.26 193.014 41.72 193.014 40.82ZM184.134 37.4H170.394C171.114 33.26 173.574 30.56 177.354 30.56C181.194 30.56 183.594 33.32 184.134 37.4ZM223.39 46.22V46.1C223.39 40.22 218.17 38.06 213.67 36.56C210.19 35.36 207.13 34.52 207.13 32.72V32.6C207.13 31.34 208.27 30.38 210.49 30.38C212.83 30.38 216.01 31.52 219.19 33.38L222.67 27.08C219.19 24.74 214.75 23.36 210.67 23.36C204.19 23.36 198.91 27.02 198.91 33.56V33.68C198.91 39.92 204.01 42.02 208.51 43.34C212.05 44.42 215.17 45.08 215.17 47.06V47.18C215.17 48.62 213.97 49.58 211.33 49.58C208.33 49.58 204.67 48.26 201.19 45.74L197.29 51.74C201.55 55.1 206.59 56.6 211.09 56.6C218.05 56.6 223.39 53.36 223.39 46.22ZM259.928 40.82V40.7C259.928 31.58 255.008 23.24 244.268 23.24C234.908 23.24 228.368 30.8 228.368 39.98V40.1C228.368 49.94 235.508 56.72 245.168 56.72C250.988 56.72 255.308 54.44 258.308 50.72L253.088 46.1C250.568 48.44 248.348 49.4 245.288 49.4C241.208 49.4 238.328 47.24 237.428 43.1H259.808C259.868 42.26 259.928 41.72 259.928 40.82ZM251.048 37.4H237.308C238.028 33.26 240.488 30.56 244.268 30.56C248.108 30.56 250.508 33.32 251.048 37.4ZM276.505 20.3V12.2H266.905V20.3H276.505ZM276.265 55.46V23.84H267.145V54.74C267.145 57.44 265.825 58.46 263.905 58.46C263.245 58.46 262.705 58.4 261.985 58.28V65.42C263.245 65.66 264.265 65.78 265.945 65.78C272.665 65.78 276.265 62.54 276.265 55.46ZM318.07 39.98V39.86C318.07 30.62 310.69 23.24 300.73 23.24C290.71 23.24 283.27 30.74 283.27 39.98V40.1C283.27 49.34 290.65 56.72 300.61 56.72C310.63 56.72 318.07 49.22 318.07 39.98ZM309.07 40.1C309.07 44.84 305.95 48.86 300.73 48.86C295.69 48.86 292.27 44.72 292.27 39.98V39.86C292.27 35.12 295.39 31.1 300.61 31.1C305.65 31.1 309.07 35.24 309.07 39.98V40.1ZM348.254 46.22V46.1C348.254 40.22 343.034 38.06 338.534 36.56C335.054 35.36 331.994 34.52 331.994 32.72V32.6C331.994 31.34 333.134 30.38 335.354 30.38C337.694 30.38 340.874 31.52 344.054 33.38L347.534 27.08C344.054 24.74 339.614 23.36 335.534 23.36C329.054 23.36 323.774 27.02 323.774 33.56V33.68C323.774 39.92 328.874 42.02 333.374 43.34C336.914 44.42 340.034 45.08 340.034 47.06V47.18C340.034 48.62 338.834 49.58 336.194 49.58C333.194 49.58 329.534 48.26 326.054 45.74L322.154 51.74C326.414 55.1 331.454 56.6 335.954 56.6C342.914 56.6 348.254 53.36 348.254 46.22Z" fill="white"/>
<path d="M122.38 96.73V95.35C121.94 95.55 121.55 95.69 121.21 95.77C120.87 95.85 120.51 95.89 120.13 95.89C119.23 95.89 118.49 95.67 117.91 95.23C117.35 94.79 117.07 94.02 117.07 92.92V83.05H122.44V81.7H117.07V76.81H115.6V81.7H113.38V83.05H115.6V93.07C115.6 93.79 115.71 94.42 115.93 94.96C116.15 95.48 116.45 95.92 116.83 96.28C117.23 96.62 117.69 96.87 118.21 97.03C118.73 97.19 119.29 97.27 119.89 97.27C120.37 97.27 120.8 97.22 121.18 97.12C121.58 97.04 121.98 96.91 122.38 96.73ZM141.032 89.35V89.29C141.032 88.21 140.832 87.19 140.432 86.23C140.052 85.27 139.512 84.43 138.812 83.71C138.112 82.99 137.282 82.42 136.322 82C135.382 81.56 134.342 81.34 133.202 81.34C132.062 81.34 131.012 81.56 130.052 82C129.092 82.42 128.252 83 127.532 83.74C126.832 84.48 126.282 85.33 125.882 86.29C125.502 87.25 125.312 88.27 125.312 89.35V89.41C125.312 90.49 125.502 91.51 125.882 92.47C126.282 93.43 126.832 94.27 127.532 94.99C128.232 95.71 129.052 96.29 129.992 96.73C130.952 97.15 132.002 97.36 133.142 97.36C134.282 97.36 135.332 97.15 136.292 96.73C137.252 96.29 138.082 95.7 138.782 94.96C139.502 94.22 140.052 93.37 140.432 92.41C140.832 91.45 141.032 90.43 141.032 89.35ZM139.442 89.41C139.442 90.31 139.282 91.16 138.962 91.96C138.662 92.76 138.232 93.46 137.672 94.06C137.132 94.64 136.472 95.11 135.692 95.47C134.932 95.81 134.102 95.98 133.202 95.98C132.322 95.98 131.492 95.81 130.712 95.47C129.952 95.13 129.282 94.66 128.702 94.06C128.142 93.46 127.702 92.76 127.382 91.96C127.062 91.14 126.902 90.27 126.902 89.35V89.29C126.902 88.39 127.052 87.54 127.352 86.74C127.672 85.94 128.102 85.25 128.642 84.67C129.202 84.07 129.862 83.6 130.622 83.26C131.402 82.9 132.242 82.72 133.142 82.72C134.022 82.72 134.842 82.89 135.602 83.23C136.382 83.57 137.052 84.04 137.612 84.64C138.192 85.24 138.642 85.95 138.962 86.77C139.282 87.57 139.442 88.43 139.442 89.35V89.41ZM153.802 83.08V81.46C153.042 81.44 152.312 81.54 151.612 81.76C150.932 81.96 150.302 82.27 149.722 82.69C149.142 83.09 148.622 83.58 148.162 84.16C147.702 84.74 147.322 85.37 147.022 86.05V81.7H145.552V97H147.022V90.73C147.022 89.49 147.202 88.4 147.562 87.46C147.922 86.5 148.402 85.7 149.002 85.06C149.622 84.4 150.332 83.91 151.132 83.59C151.932 83.25 152.772 83.08 153.652 83.08H153.802ZM170.673 97V87.64C170.673 86.72 170.533 85.88 170.253 85.12C169.993 84.34 169.593 83.67 169.053 83.11C168.533 82.55 167.893 82.12 167.133 81.82C166.373 81.5 165.513 81.34 164.553 81.34C163.153 81.34 162.013 81.65 161.133 82.27C160.253 82.89 159.553 83.65 159.033 84.55V81.7H157.563V97H159.033V88.15C159.033 87.35 159.163 86.62 159.423 85.96C159.703 85.28 160.083 84.7 160.563 84.22C161.043 83.74 161.603 83.37 162.243 83.11C162.883 82.83 163.583 82.69 164.343 82.69C165.903 82.69 167.103 83.17 167.943 84.13C168.783 85.07 169.203 86.33 169.203 87.91V97H170.673ZM187.902 97V87.46C187.902 85.46 187.332 83.96 186.192 82.96C185.052 81.96 183.492 81.46 181.512 81.46C180.452 81.46 179.492 81.58 178.632 81.82C177.772 82.06 176.922 82.38 176.082 82.78L176.622 84.07C177.322 83.71 178.062 83.42 178.842 83.2C179.622 82.96 180.482 82.84 181.422 82.84C183.002 82.84 184.232 83.23 185.112 84.01C186.012 84.79 186.462 85.96 186.462 87.52V88.18C185.722 87.98 184.962 87.82 184.182 87.7C183.402 87.58 182.472 87.52 181.392 87.52C180.392 87.52 179.482 87.63 178.662 87.85C177.842 88.07 177.142 88.39 176.562 88.81C175.982 89.23 175.522 89.75 175.182 90.37C174.862 90.99 174.702 91.7 174.702 92.5V92.56C174.702 93.36 174.872 94.06 175.212 94.66C175.572 95.26 176.032 95.76 176.592 96.16C177.152 96.56 177.782 96.86 178.482 97.06C179.182 97.26 179.892 97.36 180.612 97.36C181.332 97.36 181.992 97.27 182.592 97.09C183.212 96.93 183.762 96.72 184.242 96.46C184.722 96.18 185.142 95.87 185.502 95.53C185.882 95.17 186.202 94.81 186.462 94.45V97H187.902ZM186.492 91.27C186.492 91.97 186.332 92.61 186.012 93.19C185.712 93.77 185.292 94.27 184.752 94.69C184.232 95.09 183.622 95.41 182.922 95.65C182.222 95.87 181.482 95.98 180.702 95.98C180.122 95.98 179.562 95.9 179.022 95.74C178.482 95.58 178.002 95.35 177.582 95.05C177.182 94.75 176.862 94.39 176.622 93.97C176.382 93.53 176.262 93.03 176.262 92.47V92.41C176.262 91.33 176.692 90.47 177.552 89.83C178.432 89.17 179.682 88.84 181.302 88.84C182.402 88.84 183.382 88.92 184.242 89.08C185.102 89.22 185.852 89.37 186.492 89.53V91.27ZM207.408 97V75.1H205.938V85C205.618 84.52 205.248 84.06 204.828 83.62C204.428 83.18 203.968 82.79 203.448 82.45C202.948 82.11 202.378 81.84 201.738 81.64C201.098 81.44 200.398 81.34 199.638 81.34C198.718 81.34 197.808 81.53 196.908 81.91C196.028 82.27 195.238 82.8 194.538 83.5C193.838 84.18 193.268 85.02 192.828 86.02C192.408 87 192.198 88.11 192.198 89.35V89.41C192.198 90.65 192.408 91.77 192.828 92.77C193.268 93.75 193.838 94.58 194.538 95.26C195.238 95.94 196.028 96.46 196.908 96.82C197.808 97.18 198.718 97.36 199.638 97.36C200.398 97.36 201.088 97.25 201.708 97.03C202.348 96.83 202.918 96.56 203.418 96.22C203.938 95.88 204.398 95.48 204.798 95.02C205.218 94.56 205.598 94.08 205.938 93.58V97H207.408ZM206.028 89.38C206.028 90.36 205.848 91.25 205.488 92.05C205.148 92.85 204.688 93.54 204.108 94.12C203.528 94.7 202.858 95.15 202.098 95.47C201.358 95.79 200.588 95.95 199.788 95.95C198.988 95.95 198.218 95.8 197.478 95.5C196.758 95.18 196.118 94.74 195.558 94.18C195.018 93.6 194.588 92.9 194.268 92.08C193.948 91.26 193.788 90.35 193.788 89.35V89.29C193.788 88.27 193.938 87.36 194.238 86.56C194.558 85.74 194.988 85.05 195.528 84.49C196.068 83.93 196.698 83.5 197.418 83.2C198.158 82.9 198.948 82.75 199.788 82.75C200.588 82.75 201.358 82.91 202.098 83.23C202.858 83.55 203.528 84 204.108 84.58C204.688 85.14 205.148 85.83 205.488 86.65C205.848 87.45 206.028 88.34 206.028 89.32V89.38ZM227.663 89.35V89.29C227.663 88.21 227.463 87.19 227.063 86.23C226.683 85.27 226.143 84.43 225.443 83.71C224.743 82.99 223.913 82.42 222.953 82C222.013 81.56 220.973 81.34 219.833 81.34C218.693 81.34 217.643 81.56 216.683 82C215.723 82.42 214.883 83 214.163 83.74C213.463 84.48 212.913 85.33 212.513 86.29C212.133 87.25 211.943 88.27 211.943 89.35V89.41C211.943 90.49 212.133 91.51 212.513 92.47C212.913 93.43 213.463 94.27 214.163 94.99C214.863 95.71 215.683 96.29 216.623 96.73C217.583 97.15 218.633 97.36 219.773 97.36C220.913 97.36 221.963 97.15 222.923 96.73C223.883 96.29 224.713 95.7 225.413 94.96C226.133 94.22 226.683 93.37 227.063 92.41C227.463 91.45 227.663 90.43 227.663 89.35ZM226.073 89.41C226.073 90.31 225.913 91.16 225.593 91.96C225.293 92.76 224.863 93.46 224.303 94.06C223.763 94.64 223.103 95.11 222.323 95.47C221.563 95.81 220.733 95.98 219.833 95.98C218.953 95.98 218.123 95.81 217.343 95.47C216.583 95.13 215.913 94.66 215.333 94.06C214.773 93.46 214.333 92.76 214.013 91.96C213.693 91.14 213.533 90.27 213.533 89.35V89.29C213.533 88.39 213.683 87.54 213.983 86.74C214.303 85.94 214.733 85.25 215.273 84.67C215.833 84.07 216.493 83.6 217.253 83.26C218.033 82.9 218.873 82.72 219.773 82.72C220.653 82.72 221.473 82.89 222.233 83.23C223.013 83.57 223.683 84.04 224.243 84.64C224.823 85.24 225.273 85.95 225.593 86.77C225.913 87.57 226.073 88.43 226.073 89.35V89.41ZM242.413 92.83V92.77C242.413 92.09 242.263 91.52 241.963 91.06C241.683 90.6 241.303 90.21 240.823 89.89C240.343 89.55 239.803 89.28 239.203 89.08C238.603 88.86 237.993 88.66 237.373 88.48C236.833 88.32 236.303 88.16 235.783 88C235.263 87.82 234.803 87.62 234.403 87.4C234.023 87.18 233.713 86.92 233.473 86.62C233.233 86.3 233.113 85.93 233.113 85.51V85.45C233.113 84.69 233.423 84.06 234.043 83.56C234.683 83.04 235.533 82.78 236.593 82.78C237.413 82.78 238.223 82.92 239.023 83.2C239.843 83.48 240.603 83.85 241.303 84.31L242.083 83.08C241.323 82.56 240.453 82.15 239.473 81.85C238.513 81.55 237.573 81.4 236.653 81.4C235.913 81.4 235.233 81.51 234.613 81.73C233.993 81.93 233.463 82.22 233.023 82.6C232.583 82.98 232.233 83.43 231.973 83.95C231.733 84.45 231.613 85.01 231.613 85.63V85.69C231.613 86.37 231.763 86.94 232.063 87.4C232.383 87.86 232.793 88.25 233.293 88.57C233.793 88.87 234.353 89.12 234.973 89.32C235.613 89.52 236.243 89.71 236.863 89.89C237.403 90.05 237.913 90.21 238.393 90.37C238.873 90.53 239.303 90.73 239.683 90.97C240.063 91.21 240.363 91.49 240.583 91.81C240.803 92.13 240.913 92.51 240.913 92.95V93.01C240.913 93.91 240.553 94.62 239.833 95.14C239.133 95.66 238.263 95.92 237.223 95.92C236.243 95.92 235.293 95.75 234.373 95.41C233.453 95.05 232.573 94.55 231.733 93.91L230.863 95.08C231.683 95.74 232.653 96.28 233.773 96.7C234.893 97.1 236.013 97.3 237.133 97.3C237.873 97.3 238.563 97.2 239.203 97C239.843 96.78 240.403 96.48 240.883 96.1C241.363 95.7 241.733 95.23 241.993 94.69C242.273 94.13 242.413 93.51 242.413 92.83ZM264.339 83.08V81.46C263.579 81.44 262.849 81.54 262.149 81.76C261.469 81.96 260.839 82.27 260.259 82.69C259.679 83.09 259.159 83.58 258.699 84.16C258.239 84.74 257.859 85.37 257.559 86.05V81.7H256.089V97H257.559V90.73C257.559 89.49 257.739 88.4 258.099 87.46C258.459 86.5 258.939 85.7 259.539 85.06C260.159 84.4 260.869 83.91 261.669 83.59C262.469 83.25 263.309 83.08 264.189 83.08H264.339ZM267.849 89.95H280.539C280.559 89.83 280.569 89.74 280.569 89.68C280.569 89.6 280.569 89.51 280.569 89.41V89.35C280.569 88.21 280.399 87.16 280.059 86.2C279.739 85.22 279.269 84.37 278.649 83.65C278.049 82.93 277.319 82.37 276.459 81.97C275.599 81.55 274.629 81.34 273.549 81.34C272.509 81.34 271.549 81.55 270.669 81.97C269.789 82.39 269.019 82.96 268.359 83.68C267.719 84.4 267.209 85.25 266.829 86.23C266.469 87.19 266.289 88.22 266.289 89.32V89.38C266.289 90.58 266.489 91.67 266.889 92.65C267.289 93.63 267.829 94.47 268.509 95.17C269.209 95.87 270.009 96.41 270.909 96.79C271.829 97.17 272.789 97.36 273.789 97.36C275.249 97.36 276.469 97.09 277.449 96.55C278.449 96.01 279.339 95.32 280.119 94.48L279.099 93.58C278.459 94.26 277.719 94.83 276.879 95.29C276.059 95.75 275.049 95.98 273.849 95.98C273.089 95.98 272.359 95.85 271.659 95.59C270.979 95.31 270.369 94.91 269.829 94.39C269.289 93.87 268.839 93.24 268.479 92.5C268.119 91.76 267.909 90.91 267.849 89.95ZM267.849 88.63C267.909 87.79 268.099 87.01 268.419 86.29C268.739 85.55 269.139 84.92 269.619 84.4C270.119 83.86 270.699 83.44 271.359 83.14C272.019 82.84 272.729 82.69 273.489 82.69C274.369 82.69 275.139 82.86 275.799 83.2C276.459 83.52 277.009 83.96 277.449 84.52C277.909 85.06 278.259 85.69 278.499 86.41C278.759 87.11 278.919 87.85 278.979 88.63H267.849ZM296.798 97V87.46C296.798 85.46 296.228 83.96 295.088 82.96C293.948 81.96 292.388 81.46 290.408 81.46C289.348 81.46 288.388 81.58 287.528 81.82C286.668 82.06 285.818 82.38 284.978 82.78L285.518 84.07C286.218 83.71 286.958 83.42 287.738 83.2C288.518 82.96 289.378 82.84 290.318 82.84C291.898 82.84 293.128 83.23 294.008 84.01C294.908 84.79 295.358 85.96 295.358 87.52V88.18C294.618 87.98 293.858 87.82 293.078 87.7C292.298 87.58 291.368 87.52 290.288 87.52C289.288 87.52 288.378 87.63 287.558 87.85C286.738 88.07 286.038 88.39 285.458 88.81C284.878 89.23 284.418 89.75 284.078 90.37C283.758 90.99 283.598 91.7 283.598 92.5V92.56C283.598 93.36 283.768 94.06 284.108 94.66C284.468 95.26 284.928 95.76 285.488 96.16C286.048 96.56 286.678 96.86 287.378 97.06C288.078 97.26 288.788 97.36 289.508 97.36C290.228 97.36 290.888 97.27 291.488 97.09C292.108 96.93 292.658 96.72 293.138 96.46C293.618 96.18 294.038 95.87 294.398 95.53C294.778 95.17 295.098 94.81 295.358 94.45V97H296.798ZM295.388 91.27C295.388 91.97 295.228 92.61 294.908 93.19C294.608 93.77 294.188 94.27 293.648 94.69C293.128 95.09 292.518 95.41 291.818 95.65C291.118 95.87 290.378 95.98 289.598 95.98C289.018 95.98 288.458 95.9 287.918 95.74C287.378 95.58 286.898 95.35 286.478 95.05C286.078 94.75 285.758 94.39 285.518 93.97C285.278 93.53 285.158 93.03 285.158 92.47V92.41C285.158 91.33 285.588 90.47 286.448 89.83C287.328 89.17 288.578 88.84 290.198 88.84C291.298 88.84 292.278 88.92 293.138 89.08C293.998 89.22 294.748 89.37 295.388 89.53V91.27ZM303.765 97V75.1H302.295V97H303.765ZM311.416 77.71V75.7H309.586V77.71H311.416ZM311.236 97V81.7H309.766V97H311.236ZM331.246 97V75.1H329.776V85C329.456 84.52 329.086 84.06 328.666 83.62C328.266 83.18 327.806 82.79 327.286 82.45C326.786 82.11 326.216 81.84 325.576 81.64C324.936 81.44 324.236 81.34 323.476 81.34C322.556 81.34 321.646 81.53 320.746 81.91C319.866 82.27 319.076 82.8 318.376 83.5C317.676 84.18 317.106 85.02 316.666 86.02C316.246 87 316.036 88.11 316.036 89.35V89.41C316.036 90.65 316.246 91.77 316.666 92.77C317.106 93.75 317.676 94.58 318.376 95.26C319.076 95.94 319.866 96.46 320.746 96.82C321.646 97.18 322.556 97.36 323.476 97.36C324.236 97.36 324.926 97.25 325.546 97.03C326.186 96.83 326.756 96.56 327.256 96.22C327.776 95.88 328.236 95.48 328.636 95.02C329.056 94.56 329.436 94.08 329.776 93.58V97H331.246ZM329.866 89.38C329.866 90.36 329.686 91.25 329.326 92.05C328.986 92.85 328.526 93.54 327.946 94.12C327.366 94.7 326.696 95.15 325.936 95.47C325.196 95.79 324.426 95.95 323.626 95.95C322.826 95.95 322.056 95.8 321.316 95.5C320.596 95.18 319.956 94.74 319.396 94.18C318.856 93.6 318.426 92.9 318.106 92.08C317.786 91.26 317.626 90.35 317.626 89.35V89.29C317.626 88.27 317.776 87.36 318.076 86.56C318.396 85.74 318.826 85.05 319.366 84.49C319.906 83.93 320.536 83.5 321.256 83.2C321.996 82.9 322.786 82.75 323.626 82.75C324.426 82.75 325.196 82.91 325.936 83.23C326.696 83.55 327.366 84 327.946 84.58C328.526 85.14 328.986 85.83 329.326 86.65C329.686 87.45 329.866 88.34 329.866 89.32V89.38ZM348.771 97V87.46C348.771 85.46 348.201 83.96 347.061 82.96C345.921 81.96 344.361 81.46 342.381 81.46C341.321 81.46 340.361 81.58 339.501 81.82C338.641 82.06 337.791 82.38 336.951 82.78L337.491 84.07C338.191 83.71 338.931 83.42 339.711 83.2C340.491 82.96 341.351 82.84 342.291 82.84C343.871 82.84 345.101 83.23 345.981 84.01C346.881 84.79 347.331 85.96 347.331 87.52V88.18C346.591 87.98 345.831 87.82 345.051 87.7C344.271 87.58 343.341 87.52 342.261 87.52C341.261 87.52 340.351 87.63 339.531 87.85C338.711 88.07 338.011 88.39 337.431 88.81C336.851 89.23 336.391 89.75 336.051 90.37C335.731 90.99 335.571 91.7 335.571 92.5V92.56C335.571 93.36 335.741 94.06 336.081 94.66C336.441 95.26 336.901 95.76 337.461 96.16C338.021 96.56 338.651 96.86 339.351 97.06C340.051 97.26 340.761 97.36 341.481 97.36C342.201 97.36 342.861 97.27 343.461 97.09C344.081 96.93 344.631 96.72 345.111 96.46C345.591 96.18 346.011 95.87 346.371 95.53C346.751 95.17 347.071 94.81 347.331 94.45V97H348.771ZM347.361 91.27C347.361 91.97 347.201 92.61 346.881 93.19C346.581 93.77 346.161 94.27 345.621 94.69C345.101 95.09 344.491 95.41 343.791 95.65C343.091 95.87 342.351 95.98 341.571 95.98C340.991 95.98 340.431 95.9 339.891 95.74C339.351 95.58 338.871 95.35 338.451 95.05C338.051 94.75 337.731 94.39 337.491 93.97C337.251 93.53 337.131 93.03 337.131 92.47V92.41C337.131 91.33 337.561 90.47 338.421 89.83C339.301 89.17 340.551 88.84 342.171 88.84C343.271 88.84 344.251 88.92 345.111 89.08C345.971 89.22 346.721 89.37 347.361 89.53V91.27ZM368.278 97V75.1H366.808V85C366.488 84.52 366.118 84.06 365.698 83.62C365.298 83.18 364.838 82.79 364.318 82.45C363.818 82.11 363.248 81.84 362.608 81.64C361.968 81.44 361.268 81.34 360.508 81.34C359.588 81.34 358.678 81.53 357.778 81.91C356.898 82.27 356.108 82.8 355.408 83.5C354.708 84.18 354.138 85.02 353.698 86.02C353.278 87 353.068 88.11 353.068 89.35V89.41C353.068 90.65 353.278 91.77 353.698 92.77C354.138 93.75 354.708 94.58 355.408 95.26C356.108 95.94 356.898 96.46 357.778 96.82C358.678 97.18 359.588 97.36 360.508 97.36C361.268 97.36 361.958 97.25 362.578 97.03C363.218 96.83 363.788 96.56 364.288 96.22C364.808 95.88 365.268 95.48 365.668 95.02C366.088 94.56 366.468 94.08 366.808 93.58V97H368.278ZM366.898 89.38C366.898 90.36 366.718 91.25 366.358 92.05C366.018 92.85 365.558 93.54 364.978 94.12C364.398 94.7 363.728 95.15 362.968 95.47C362.228 95.79 361.458 95.95 360.658 95.95C359.858 95.95 359.088 95.8 358.348 95.5C357.628 95.18 356.988 94.74 356.428 94.18C355.888 93.6 355.458 92.9 355.138 92.08C354.818 91.26 354.658 90.35 354.658 89.35V89.29C354.658 88.27 354.808 87.36 355.108 86.56C355.428 85.74 355.858 85.05 356.398 84.49C356.938 83.93 357.568 83.5 358.288 83.2C359.028 82.9 359.818 82.75 360.658 82.75C361.458 82.75 362.228 82.91 362.968 83.23C363.728 83.55 364.398 84 364.978 84.58C365.558 85.14 366.018 85.83 366.358 86.65C366.718 87.45 366.898 88.34 366.898 89.32V89.38ZM374.372 89.95H387.062C387.082 89.83 387.092 89.74 387.092 89.68C387.092 89.6 387.092 89.51 387.092 89.41V89.35C387.092 88.21 386.922 87.16 386.582 86.2C386.262 85.22 385.792 84.37 385.172 83.65C384.572 82.93 383.842 82.37 382.982 81.97C382.122 81.55 381.152 81.34 380.072 81.34C379.032 81.34 378.072 81.55 377.192 81.97C376.312 82.39 375.542 82.96 374.882 83.68C374.242 84.4 373.732 85.25 373.352 86.23C372.992 87.19 372.812 88.22 372.812 89.32V89.38C372.812 90.58 373.012 91.67 373.412 92.65C373.812 93.63 374.352 94.47 375.032 95.17C375.732 95.87 376.532 96.41 377.432 96.79C378.352 97.17 379.312 97.36 380.312 97.36C381.772 97.36 382.992 97.09 383.972 96.55C384.972 96.01 385.862 95.32 386.642 94.48L385.622 93.58C384.982 94.26 384.242 94.83 383.402 95.29C382.582 95.75 381.572 95.98 380.372 95.98C379.612 95.98 378.882 95.85 378.182 95.59C377.502 95.31 376.892 94.91 376.352 94.39C375.812 93.87 375.362 93.24 375.002 92.5C374.642 91.76 374.432 90.91 374.372 89.95ZM374.372 88.63C374.432 87.79 374.622 87.01 374.942 86.29C375.262 85.55 375.662 84.92 376.142 84.4C376.642 83.86 377.222 83.44 377.882 83.14C378.542 82.84 379.252 82.69 380.012 82.69C380.892 82.69 381.662 82.86 382.322 83.2C382.982 83.52 383.532 83.96 383.972 84.52C384.432 85.06 384.782 85.69 385.022 86.41C385.282 87.11 385.442 87.85 385.502 88.63H374.372Z" fill="white"/>
<path d="M35.0475 0L25.4891 23.8547L0 32.8002L25.4891 41.7457L35.0475 65.6004L44.6059 41.7457L70.095 32.8002L44.6059 23.8547L35.0475 0Z" fill="#6ABDFF"/>
<path d="M70.0946 49.2L65.3154 61.1273L52.5708 65.6L65.3154 70.0728L70.0946 82.0001L74.8738 70.0728L87.6184 65.6L74.8738 61.1273L70.0946 49.2Z" fill="#6ABDFF"/>
</svg>
