<svg width="267" height="95" viewBox="0 0 267 95" fill="none" xmlns="http://www.w3.org/2000/svg">
<path d="M23.28 19.8V19.72C23.28 18.28 23.0133 16.92 22.48 15.64C21.9733 14.36 21.2533 13.24 20.32 12.28C19.3867 11.32 18.28 10.56 17 10C15.7467 9.41333 14.36 9.12 12.84 9.12C11.32 9.12 9.92 9.41333 8.64 10C7.36 10.56 6.24 11.3333 5.28 12.32C4.34667 13.3067 3.61333 14.44 3.08 15.72C2.57333 17 2.32 18.36 2.32 19.8V19.88C2.32 21.32 2.57333 22.68 3.08 23.96C3.61333 25.24 4.34667 26.36 5.28 27.32C6.21333 28.28 7.30667 29.0533 8.56 29.64C9.84 30.2 11.24 30.48 12.76 30.48C14.28 30.48 15.68 30.2 16.96 29.64C18.24 29.0533 19.3467 28.2667 20.28 27.28C21.24 26.2933 21.9733 25.16 22.48 23.88C23.0133 22.6 23.28 21.24 23.28 19.8ZM21.16 19.88C21.16 21.08 20.9467 22.2133 20.52 23.28C20.12 24.3467 19.5467 25.28 18.8 26.08C18.08 26.8533 17.2 27.48 16.16 27.96C15.1467 28.4133 14.04 28.64 12.84 28.64C11.6667 28.64 10.56 28.4133 9.52 27.96C8.50667 27.5067 7.61333 26.88 6.84 26.08C6.09333 25.28 5.50667 24.3467 5.08 23.28C4.65333 22.1867 4.44 21.0267 4.44 19.8V19.72C4.44 18.52 4.64 17.3867 5.04 16.32C5.46667 15.2533 6.04 14.3333 6.76 13.56C7.50667 12.76 8.38667 12.1333 9.4 11.68C10.44 11.2 11.56 10.96 12.76 10.96C13.9333 10.96 15.0267 11.1867 16.04 11.64C17.08 12.0933 17.9733 12.72 18.72 13.52C19.4933 14.32 20.0933 15.2667 20.52 16.36C20.9467 17.4267 21.16 18.5733 21.16 19.8V19.88ZM42.9459 24.44V24.36C42.9459 23.4533 42.7459 22.6933 42.3459 22.08C41.9726 21.4667 41.4659 20.9467 40.8259 20.52C40.1859 20.0667 39.4659 19.7067 38.6659 19.44C37.8659 19.1467 37.0526 18.88 36.2259 18.64C35.5059 18.4267 34.7993 18.2133 34.1059 18C33.4126 17.76 32.7993 17.4933 32.2659 17.2C31.7593 16.9067 31.3459 16.56 31.0259 16.16C30.7059 15.7333 30.5459 15.24 30.5459 14.68V14.6C30.5459 13.5867 30.9593 12.7467 31.7859 12.08C32.6393 11.3867 33.7726 11.04 35.1859 11.04C36.2793 11.04 37.3593 11.2267 38.4259 11.6C39.5193 11.9733 40.5326 12.4667 41.4659 13.08L42.5059 11.44C41.4926 10.7467 40.3326 10.2 39.0259 9.8C37.7459 9.4 36.4926 9.2 35.2659 9.2C34.2793 9.2 33.3726 9.34667 32.5459 9.64C31.7193 9.90667 31.0126 10.2933 30.4259 10.8C29.8393 11.3067 29.3726 11.9067 29.0259 12.6C28.7059 13.2667 28.5459 14.0133 28.5459 14.84V14.92C28.5459 15.8267 28.7459 16.5867 29.1459 17.2C29.5726 17.8133 30.1193 18.3333 30.7859 18.76C31.4526 19.16 32.1993 19.4933 33.0259 19.76C33.8793 20.0267 34.7193 20.28 35.5459 20.52C36.2659 20.7333 36.9459 20.9467 37.5859 21.16C38.2259 21.3733 38.7993 21.64 39.3059 21.96C39.8126 22.28 40.2126 22.6533 40.5059 23.08C40.7993 23.5067 40.9459 24.0133 40.9459 24.6V24.68C40.9459 25.88 40.4659 26.8267 39.5059 27.52C38.5726 28.2133 37.4126 28.56 36.0259 28.56C34.7193 28.56 33.4526 28.3333 32.2259 27.88C30.9993 27.4 29.8259 26.7333 28.7059 25.88L27.5459 27.44C28.6393 28.32 29.9326 29.04 31.4259 29.6C32.9193 30.1333 34.4126 30.4 35.9059 30.4C36.8926 30.4 37.8126 30.2667 38.6659 30C39.5193 29.7067 40.2659 29.3067 40.9059 28.8C41.5459 28.2667 42.0393 27.64 42.3859 26.92C42.7593 26.1733 42.9459 25.3467 42.9459 24.44ZM78.6609 30V17.52C78.6609 16.2933 78.4743 15.1733 78.1009 14.16C77.7543 13.12 77.2209 12.2267 76.5009 11.48C75.8076 10.7333 74.9543 10.16 73.9409 9.76C72.9276 9.33333 71.7809 9.12 70.5009 9.12C68.6343 9.12 67.1143 9.53333 65.9409 10.36C64.7676 11.1867 63.8343 12.2 63.1409 13.4V9.6H61.1809V30H63.1409V18.2C63.1409 17.1333 63.3143 16.16 63.6609 15.28C64.0343 14.3733 64.5409 13.6 65.1809 12.96C65.8209 12.32 66.5676 11.8267 67.4209 11.48C68.2743 11.1067 69.2076 10.92 70.2209 10.92C72.3009 10.92 73.9009 11.56 75.0209 12.84C76.1409 14.0933 76.7009 15.7733 76.7009 17.88V30H78.6609ZM105.272 19.8V19.72C105.272 18.28 105.006 16.92 104.472 15.64C103.966 14.36 103.246 13.24 102.312 12.28C101.379 11.32 100.272 10.56 98.9922 10C97.7389 9.41333 96.3522 9.12 94.8322 9.12C93.3122 9.12 91.9122 9.41333 90.6322 10C89.3522 10.56 88.2322 11.3333 87.2722 12.32C86.3389 13.3067 85.6055 14.44 85.0722 15.72C84.5655 17 84.3122 18.36 84.3122 19.8V19.88C84.3122 21.32 84.5655 22.68 85.0722 23.96C85.6055 25.24 86.3389 26.36 87.2722 27.32C88.2055 28.28 89.2989 29.0533 90.5522 29.64C91.8322 30.2 93.2322 30.48 94.7522 30.48C96.2722 30.48 97.6722 30.2 98.9522 29.64C100.232 29.0533 101.339 28.2667 102.272 27.28C103.232 26.2933 103.966 25.16 104.472 23.88C105.006 22.6 105.272 21.24 105.272 19.8ZM103.152 19.88C103.152 21.08 102.939 22.2133 102.512 23.28C102.112 24.3467 101.539 25.28 100.792 26.08C100.072 26.8533 99.1922 27.48 98.1522 27.96C97.1389 28.4133 96.0322 28.64 94.8322 28.64C93.6589 28.64 92.5522 28.4133 91.5122 27.96C90.4989 27.5067 89.6055 26.88 88.8322 26.08C88.0855 25.28 87.4989 24.3467 87.0722 23.28C86.6455 22.1867 86.4322 21.0267 86.4322 19.8V19.72C86.4322 18.52 86.6322 17.3867 87.0322 16.32C87.4589 15.2533 88.0322 14.3333 88.7522 13.56C89.4989 12.76 90.3789 12.1333 91.3922 11.68C92.4322 11.2 93.5522 10.96 94.7522 10.96C95.9255 10.96 97.0189 11.1867 98.0322 11.64C99.0722 12.0933 99.9655 12.72 100.712 13.52C101.486 14.32 102.086 15.2667 102.512 16.36C102.939 17.4267 103.152 18.5733 103.152 19.8V19.88ZM124.938 24.44V24.36C124.938 23.4533 124.738 22.6933 124.338 22.08C123.965 21.4667 123.458 20.9467 122.818 20.52C122.178 20.0667 121.458 19.7067 120.658 19.44C119.858 19.1467 119.045 18.88 118.218 18.64C117.498 18.4267 116.791 18.2133 116.098 18C115.405 17.76 114.791 17.4933 114.258 17.2C113.751 16.9067 113.338 16.56 113.018 16.16C112.698 15.7333 112.538 15.24 112.538 14.68V14.6C112.538 13.5867 112.951 12.7467 113.778 12.08C114.631 11.3867 115.765 11.04 117.178 11.04C118.271 11.04 119.351 11.2267 120.418 11.6C121.511 11.9733 122.525 12.4667 123.458 13.08L124.498 11.44C123.485 10.7467 122.325 10.2 121.018 9.8C119.738 9.4 118.485 9.2 117.258 9.2C116.271 9.2 115.365 9.34667 114.538 9.64C113.711 9.90667 113.005 10.2933 112.418 10.8C111.831 11.3067 111.365 11.9067 111.018 12.6C110.698 13.2667 110.538 14.0133 110.538 14.84V14.92C110.538 15.8267 110.738 16.5867 111.138 17.2C111.565 17.8133 112.111 18.3333 112.778 18.76C113.445 19.16 114.191 19.4933 115.018 19.76C115.871 20.0267 116.711 20.28 117.538 20.52C118.258 20.7333 118.938 20.9467 119.578 21.16C120.218 21.3733 120.791 21.64 121.298 21.96C121.805 22.28 122.205 22.6533 122.498 23.08C122.791 23.5067 122.938 24.0133 122.938 24.6V24.68C122.938 25.88 122.458 26.8267 121.498 27.52C120.565 28.2133 119.405 28.56 118.018 28.56C116.711 28.56 115.445 28.3333 114.218 27.88C112.991 27.4 111.818 26.7333 110.698 25.88L109.538 27.44C110.631 28.32 111.925 29.04 113.418 29.6C114.911 30.1333 116.405 30.4 117.898 30.4C118.885 30.4 119.805 30.2667 120.658 30C121.511 29.7067 122.258 29.3067 122.898 28.8C123.538 28.2667 124.031 27.64 124.378 26.92C124.751 26.1733 124.938 25.3467 124.938 24.44ZM144.43 24.44V24.36C144.43 23.4533 144.23 22.6933 143.83 22.08C143.457 21.4667 142.95 20.9467 142.31 20.52C141.67 20.0667 140.95 19.7067 140.15 19.44C139.35 19.1467 138.537 18.88 137.71 18.64C136.99 18.4267 136.284 18.2133 135.59 18C134.897 17.76 134.284 17.4933 133.75 17.2C133.244 16.9067 132.83 16.56 132.51 16.16C132.19 15.7333 132.03 15.24 132.03 14.68V14.6C132.03 13.5867 132.444 12.7467 133.27 12.08C134.124 11.3867 135.257 11.04 136.67 11.04C137.764 11.04 138.844 11.2267 139.91 11.6C141.004 11.9733 142.017 12.4667 142.95 13.08L143.99 11.44C142.977 10.7467 141.817 10.2 140.51 9.8C139.23 9.4 137.977 9.2 136.75 9.2C135.764 9.2 134.857 9.34667 134.03 9.64C133.204 9.90667 132.497 10.2933 131.91 10.8C131.324 11.3067 130.857 11.9067 130.51 12.6C130.19 13.2667 130.03 14.0133 130.03 14.84V14.92C130.03 15.8267 130.23 16.5867 130.63 17.2C131.057 17.8133 131.604 18.3333 132.27 18.76C132.937 19.16 133.684 19.4933 134.51 19.76C135.364 20.0267 136.204 20.28 137.03 20.52C137.75 20.7333 138.43 20.9467 139.07 21.16C139.71 21.3733 140.284 21.64 140.79 21.96C141.297 22.28 141.697 22.6533 141.99 23.08C142.284 23.5067 142.43 24.0133 142.43 24.6V24.68C142.43 25.88 141.95 26.8267 140.99 27.52C140.057 28.2133 138.897 28.56 137.51 28.56C136.204 28.56 134.937 28.3333 133.71 27.88C132.484 27.4 131.31 26.7333 130.19 25.88L129.03 27.44C130.124 28.32 131.417 29.04 132.91 29.6C134.404 30.1333 135.897 30.4 137.39 30.4C138.377 30.4 139.297 30.2667 140.15 30C141.004 29.7067 141.75 29.3067 142.39 28.8C143.03 28.2667 143.524 27.64 143.87 26.92C144.244 26.1733 144.43 25.3467 144.43 24.44ZM170.233 19.8V19.72C170.233 18.28 169.966 16.92 169.433 15.64C168.926 14.36 168.206 13.24 167.273 12.28C166.34 11.32 165.233 10.56 163.953 10C162.7 9.41333 161.313 9.12 159.793 9.12C158.273 9.12 156.873 9.41333 155.593 10C154.313 10.56 153.193 11.3333 152.233 12.32C151.3 13.3067 150.566 14.44 150.033 15.72C149.526 17 149.273 18.36 149.273 19.8V19.88C149.273 21.32 149.526 22.68 150.033 23.96C150.566 25.24 151.3 26.36 152.233 27.32C153.166 28.28 154.26 29.0533 155.513 29.64C156.793 30.2 158.193 30.48 159.713 30.48C161.233 30.48 162.633 30.2 163.913 29.64C165.193 29.0533 166.3 28.2667 167.233 27.28C168.193 26.2933 168.926 25.16 169.433 23.88C169.966 22.6 170.233 21.24 170.233 19.8ZM168.113 19.88C168.113 21.08 167.9 22.2133 167.473 23.28C167.073 24.3467 166.5 25.28 165.753 26.08C165.033 26.8533 164.153 27.48 163.113 27.96C162.1 28.4133 160.993 28.64 159.793 28.64C158.62 28.64 157.513 28.4133 156.473 27.96C155.46 27.5067 154.566 26.88 153.793 26.08C153.046 25.28 152.46 24.3467 152.033 23.28C151.606 22.1867 151.393 21.0267 151.393 19.8V19.72C151.393 18.52 151.593 17.3867 151.993 16.32C152.42 15.2533 152.993 14.3333 153.713 13.56C154.46 12.76 155.34 12.1333 156.353 11.68C157.393 11.2 158.513 10.96 159.713 10.96C160.886 10.96 161.98 11.1867 162.993 11.64C164.033 12.0933 164.926 12.72 165.673 13.52C166.446 14.32 167.046 15.2667 167.473 16.36C167.9 17.4267 168.113 18.5733 168.113 19.8V19.88ZM189.899 24.44V24.36C189.899 23.4533 189.699 22.6933 189.299 22.08C188.926 21.4667 188.419 20.9467 187.779 20.52C187.139 20.0667 186.419 19.7067 185.619 19.44C184.819 19.1467 184.006 18.88 183.179 18.64C182.459 18.4267 181.752 18.2133 181.059 18C180.366 17.76 179.752 17.4933 179.219 17.2C178.712 16.9067 178.299 16.56 177.979 16.16C177.659 15.7333 177.499 15.24 177.499 14.68V14.6C177.499 13.5867 177.912 12.7467 178.739 12.08C179.592 11.3867 180.726 11.04 182.139 11.04C183.232 11.04 184.312 11.2267 185.379 11.6C186.472 11.9733 187.486 12.4667 188.419 13.08L189.459 11.44C188.446 10.7467 187.286 10.2 185.979 9.8C184.699 9.4 183.446 9.2 182.219 9.2C181.232 9.2 180.326 9.34667 179.499 9.64C178.672 9.90667 177.966 10.2933 177.379 10.8C176.792 11.3067 176.326 11.9067 175.979 12.6C175.659 13.2667 175.499 14.0133 175.499 14.84V14.92C175.499 15.8267 175.699 16.5867 176.099 17.2C176.526 17.8133 177.072 18.3333 177.739 18.76C178.406 19.16 179.152 19.4933 179.979 19.76C180.832 20.0267 181.672 20.28 182.499 20.52C183.219 20.7333 183.899 20.9467 184.539 21.16C185.179 21.3733 185.752 21.64 186.259 21.96C186.766 22.28 187.166 22.6533 187.459 23.08C187.752 23.5067 187.899 24.0133 187.899 24.6V24.68C187.899 25.88 187.419 26.8267 186.459 27.52C185.526 28.2133 184.366 28.56 182.979 28.56C181.672 28.56 180.406 28.3333 179.179 27.88C177.952 27.4 176.779 26.7333 175.659 25.88L174.499 27.44C175.592 28.32 176.886 29.04 178.379 29.6C179.872 30.1333 181.366 30.4 182.859 30.4C183.846 30.4 184.766 30.2667 185.619 30C186.472 29.7067 187.219 29.3067 187.859 28.8C188.499 28.2667 188.992 27.64 189.339 26.92C189.712 26.1733 189.899 25.3467 189.899 24.44Z" fill="white"/>
<path d="M27.96 73.48L24.04 69.52C21.84 71.52 19.88 72.8 16.68 72.8C11.88 72.8 8.56 68.8 8.56 64V63.92C8.56 59.12 11.96 55.2 16.68 55.2C19.48 55.2 21.68 56.4 23.84 58.36L27.76 53.84C25.16 51.28 22 49.52 16.72 49.52C8.12 49.52 2.12 56.04 2.12 64V64.08C2.12 72.12 8.24 78.48 16.48 78.48C21.88 78.48 25.08 76.56 27.96 73.48ZM60.63 64V63.92C60.63 55.96 54.43 49.52 45.79 49.52C37.15 49.52 30.87 56.04 30.87 64V64.08C30.87 72.04 37.07 78.48 45.71 78.48C54.35 78.48 60.63 71.96 60.63 64ZM54.19 64.08C54.19 68.88 50.75 72.8 45.79 72.8C40.83 72.8 37.31 68.8 37.31 64V63.92C37.31 59.12 40.75 55.2 45.71 55.2C50.67 55.2 54.19 59.2 54.19 64V64.08ZM90.9744 78V50H84.8944V67.24L71.7744 50H66.0944V78H72.1744V60.2L85.7344 78H90.9744ZM118.896 55.68V50H95.6959V55.68H104.216V78H110.376V55.68H118.896ZM147.32 78L135.32 49.8H129.64L117.64 78H123.92L126.48 71.72H138.32L140.88 78H147.32ZM136.12 66.28H128.68L132.4 57.2L136.12 66.28ZM174.444 73.48L170.524 69.52C168.324 71.52 166.364 72.8 163.164 72.8C158.364 72.8 155.044 68.8 155.044 64V63.92C155.044 59.12 158.444 55.2 163.164 55.2C165.964 55.2 168.164 56.4 170.324 58.36L174.244 53.84C171.644 51.28 168.484 49.52 163.204 49.52C154.604 49.52 148.604 56.04 148.604 64V64.08C148.604 72.12 154.724 78.48 162.964 78.48C168.364 78.48 171.564 76.56 174.444 73.48ZM200.576 55.68V50H177.376V55.68H185.896V78H192.056V55.68H200.576ZM232.622 64V63.92C232.622 55.96 226.422 49.52 217.782 49.52C209.142 49.52 202.862 56.04 202.862 64V64.08C202.862 72.04 209.062 78.48 217.702 78.48C226.342 78.48 232.622 71.96 232.622 64ZM226.182 64.08C226.182 68.88 222.742 72.8 217.782 72.8C212.822 72.8 209.302 68.8 209.302 64V63.92C209.302 59.12 212.742 55.2 217.702 55.2C222.662 55.2 226.182 59.2 226.182 64V64.08ZM258.131 69.72V69.64C258.131 64.76 254.931 62.72 249.251 61.24C244.411 60 243.211 59.4 243.211 57.56V57.48C243.211 56.12 244.451 55.04 246.811 55.04C249.171 55.04 251.611 56.08 254.091 57.8L257.291 53.16C254.451 50.88 250.971 49.6 246.891 49.6C241.171 49.6 237.091 52.96 237.091 58.04V58.12C237.091 63.68 240.731 65.24 246.371 66.68C251.051 67.88 252.011 68.68 252.011 70.24V70.32C252.011 71.96 250.491 72.96 247.971 72.96C244.771 72.96 242.131 71.64 239.611 69.56L235.971 73.92C239.331 76.92 243.611 78.4 247.851 78.4C253.891 78.4 258.131 75.28 258.131 69.72Z" fill="white"/>
</svg>
