<svg width="98" height="90" viewBox="0 0 98 90" fill="none" xmlns="http://www.w3.org/2000/svg">
<path d="M53.0491 3.62517C52.5094 2.53696 51.6748 1.62076 50.6395 0.980132C49.6042 0.339504 48.4096 0 47.1907 0C45.9717 0 44.7771 0.339504 43.7418 0.980132C42.7065 1.62076 41.8719 2.53696 41.3322 3.62517L30.2905 25.901L5.60088 29.4787C4.39389 29.6521 3.25971 30.1582 2.32667 30.94C1.39362 31.7218 0.698955 32.7479 0.321262 33.9024C-0.0564305 35.0568 -0.102072 36.2934 0.189501 37.4724C0.481074 38.6513 1.09822 39.7254 1.97112 40.5733L19.8441 57.9126L15.6263 82.3929C15.4197 83.5895 15.5535 84.8198 16.0127 85.9445C16.4719 87.0693 17.2381 88.0437 18.2247 88.7574C19.2112 89.4711 20.3787 89.8957 21.595 89.9831C22.8113 90.0705 24.0279 89.8173 25.1072 89.252L47.1834 77.6876L50.6825 79.5235C49.073 78.0437 47.9492 76.1149 47.458 73.9892C46.9668 71.8635 47.1311 69.6397 47.9293 67.6085C48.7275 65.5772 50.1226 63.8328 51.9322 62.6033C53.7418 61.3739 55.8818 60.7164 58.0727 60.717C55.1847 60.717 52.4149 59.5747 50.3728 57.5415C48.3307 55.5083 47.1834 52.7507 47.1834 49.8754C47.1834 47 48.3307 44.2424 50.3728 42.2092C52.4149 40.176 55.1847 39.0338 58.0727 39.0338C56.6427 39.0338 55.2267 38.7534 53.9055 38.2085C52.5844 37.6637 51.3839 36.8651 50.3728 35.8584C49.3616 34.8516 48.5595 33.6565 48.0123 32.3411C47.465 31.0257 47.1834 29.6159 47.1834 28.1922C47.1834 26.7685 47.465 25.3587 48.0123 24.0433C48.5595 22.7279 49.3616 21.5328 50.3728 20.526C51.3839 19.5193 52.5844 18.7207 53.9055 18.1759C55.2267 17.631 56.6427 17.3506 58.0727 17.3506H59.8512L53.0491 3.61794V3.62517ZM58.0727 24.5783C57.11 24.5783 56.1867 24.9591 55.506 25.6368C54.8253 26.3145 54.4429 27.2337 54.4429 28.1922C54.4429 29.1507 54.8253 30.0699 55.506 30.7476C56.1867 31.4253 57.11 31.8061 58.0727 31.8061H94.3702C95.3329 31.8061 96.2562 31.4253 96.9369 30.7476C97.6176 30.0699 98 29.1507 98 28.1922C98 27.2337 97.6176 26.3145 96.9369 25.6368C96.2562 24.9591 95.3329 24.5783 94.3702 24.5783H58.0727ZM58.0727 46.2615C57.11 46.2615 56.1867 46.6422 55.506 47.32C54.8253 47.9977 54.4429 48.9169 54.4429 49.8754C54.4429 50.8338 54.8253 51.753 55.506 52.4308C56.1867 53.1085 57.11 53.4892 58.0727 53.4892H94.3702C95.3329 53.4892 96.2562 53.1085 96.9369 52.4308C97.6176 51.753 98 50.8338 98 49.8754C98 48.9169 97.6176 47.9977 96.9369 47.32C96.2562 46.6422 95.3329 46.2615 94.3702 46.2615H58.0727ZM58.0727 67.9447C57.11 67.9447 56.1867 68.3254 55.506 69.0032C54.8253 69.6809 54.4429 70.6001 54.4429 71.5585C54.4429 72.517 54.8253 73.4362 55.506 74.1139C56.1867 74.7917 57.11 75.1724 58.0727 75.1724H94.3702C95.3329 75.1724 96.2562 74.7917 96.9369 74.1139C97.6176 73.4362 98 72.517 98 71.5585C98 70.6001 97.6176 69.6809 96.9369 69.0032C96.2562 68.3254 95.3329 67.9447 94.3702 67.9447H58.0727Z" fill="#EDF0FD"/>
</svg>
