<svg width="330" height="105" viewBox="0 0 330 105" fill="none" xmlns="http://www.w3.org/2000/svg">
<path d="M27.5981 0L20.0714 18.7844L0 25.8285L20.0714 32.8726L27.5981 51.657L35.1249 32.8726L55.1963 25.8285L35.1249 18.7844L27.5981 0Z" fill="#6ABDFF"/>
<path d="M55.196 38.7424L51.4326 48.1346L41.3969 51.6567L51.4326 55.1787L55.196 64.5709L58.9594 55.1787L68.9951 51.6567L58.9594 48.1346L55.196 38.7424Z" fill="#6ABDFF"/>
<path d="M95.56 14.12V11.69C94.42 11.66 93.325 11.81 92.275 12.14C91.255 12.44 90.31 12.905 89.44 13.535C88.57 14.135 87.79 14.87 87.1 15.74C86.41 16.61 85.84 17.555 85.39 18.575V12.05H83.185V35H85.39V25.595C85.39 23.735 85.66 22.1 86.2 20.69C86.74 19.25 87.46 18.05 88.36 17.09C89.29 16.1 90.355 15.365 91.555 14.885C92.755 14.375 94.015 14.12 95.335 14.12H95.56ZM100.825 24.425H119.86C119.89 24.245 119.905 24.11 119.905 24.02C119.905 23.9 119.905 23.765 119.905 23.615V23.525C119.905 21.815 119.65 20.24 119.14 18.8C118.66 17.33 117.955 16.055 117.025 14.975C116.125 13.895 115.03 13.055 113.74 12.455C112.45 11.825 110.995 11.51 109.375 11.51C107.815 11.51 106.375 11.825 105.055 12.455C103.735 13.085 102.58 13.94 101.59 15.02C100.63 16.1 99.865 17.375 99.295 18.845C98.755 20.285 98.485 21.83 98.485 23.48V23.57C98.485 25.37 98.785 27.005 99.385 28.475C99.985 29.945 100.795 31.205 101.815 32.255C102.865 33.305 104.065 34.115 105.415 34.685C106.795 35.255 108.235 35.54 109.735 35.54C111.925 35.54 113.755 35.135 115.225 34.325C116.725 33.515 118.06 32.48 119.23 31.22L117.7 29.87C116.74 30.89 115.63 31.745 114.37 32.435C113.14 33.125 111.625 33.47 109.825 33.47C108.685 33.47 107.59 33.275 106.54 32.885C105.52 32.465 104.605 31.865 103.795 31.085C102.985 30.305 102.31 29.36 101.77 28.25C101.23 27.14 100.915 25.865 100.825 24.425ZM100.825 22.445C100.915 21.185 101.2 20.015 101.68 18.935C102.16 17.825 102.76 16.88 103.48 16.1C104.23 15.29 105.1 14.66 106.09 14.21C107.08 13.76 108.145 13.535 109.285 13.535C110.605 13.535 111.76 13.79 112.75 14.3C113.74 14.78 114.565 15.44 115.225 16.28C115.915 17.09 116.44 18.035 116.8 19.115C117.19 20.165 117.43 21.275 117.52 22.445H100.825ZM144.249 35V20.69C144.249 17.69 143.394 15.44 141.684 13.94C139.974 12.44 137.634 11.69 134.664 11.69C133.074 11.69 131.634 11.87 130.344 12.23C129.054 12.59 127.779 13.07 126.519 13.67L127.329 15.605C128.379 15.065 129.489 14.63 130.659 14.3C131.829 13.94 133.119 13.76 134.529 13.76C136.899 13.76 138.744 14.345 140.064 15.515C141.414 16.685 142.089 18.44 142.089 20.78V21.77C140.979 21.47 139.839 21.23 138.669 21.05C137.499 20.87 136.104 20.78 134.484 20.78C132.984 20.78 131.619 20.945 130.389 21.275C129.159 21.605 128.109 22.085 127.239 22.715C126.369 23.345 125.679 24.125 125.169 25.055C124.689 25.985 124.449 27.05 124.449 28.25V28.34C124.449 29.54 124.704 30.59 125.214 31.49C125.754 32.39 126.444 33.14 127.284 33.74C128.124 34.34 129.069 34.79 130.119 35.09C131.169 35.39 132.234 35.54 133.314 35.54C134.394 35.54 135.384 35.405 136.284 35.135C137.214 34.895 138.039 34.58 138.759 34.19C139.479 33.77 140.109 33.305 140.649 32.795C141.219 32.255 141.699 31.715 142.089 31.175V35H144.249ZM142.134 26.405C142.134 27.455 141.894 28.415 141.414 29.285C140.964 30.155 140.334 30.905 139.524 31.535C138.744 32.135 137.829 32.615 136.779 32.975C135.729 33.305 134.619 33.47 133.449 33.47C132.579 33.47 131.739 33.35 130.929 33.11C130.119 32.87 129.399 32.525 128.769 32.075C128.169 31.625 127.689 31.085 127.329 30.455C126.969 29.795 126.789 29.045 126.789 28.205V28.115C126.789 26.495 127.434 25.205 128.724 24.245C130.044 23.255 131.919 22.76 134.349 22.76C135.999 22.76 137.469 22.88 138.759 23.12C140.049 23.33 141.174 23.555 142.134 23.795V26.405ZM154.699 35V2.15H152.494V35H154.699ZM166.175 6.065V3.05H163.43V6.065H166.175ZM165.905 35V12.05H163.7V35H165.905ZM192.861 35V33.02H176.301L192.861 13.31V12.05H173.646V14.03H189.576L173.016 33.74V35H192.861ZM217.418 35V20.69C217.418 17.69 216.563 15.44 214.853 13.94C213.143 12.44 210.803 11.69 207.833 11.69C206.243 11.69 204.803 11.87 203.513 12.23C202.223 12.59 200.948 13.07 199.688 13.67L200.498 15.605C201.548 15.065 202.658 14.63 203.828 14.3C204.998 13.94 206.288 13.76 207.698 13.76C210.068 13.76 211.913 14.345 213.233 15.515C214.583 16.685 215.258 18.44 215.258 20.78V21.77C214.148 21.47 213.008 21.23 211.838 21.05C210.668 20.87 209.273 20.78 207.653 20.78C206.153 20.78 204.788 20.945 203.558 21.275C202.328 21.605 201.278 22.085 200.408 22.715C199.538 23.345 198.848 24.125 198.338 25.055C197.858 25.985 197.618 27.05 197.618 28.25V28.34C197.618 29.54 197.873 30.59 198.383 31.49C198.923 32.39 199.613 33.14 200.453 33.74C201.293 34.34 202.238 34.79 203.288 35.09C204.338 35.39 205.403 35.54 206.483 35.54C207.563 35.54 208.553 35.405 209.453 35.135C210.383 34.895 211.208 34.58 211.928 34.19C212.648 33.77 213.278 33.305 213.818 32.795C214.388 32.255 214.868 31.715 215.258 31.175V35H217.418ZM215.303 26.405C215.303 27.455 215.063 28.415 214.583 29.285C214.133 30.155 213.503 30.905 212.693 31.535C211.913 32.135 210.998 32.615 209.948 32.975C208.898 33.305 207.788 33.47 206.618 33.47C205.748 33.47 204.908 33.35 204.098 33.11C203.288 32.87 202.568 32.525 201.938 32.075C201.338 31.625 200.858 31.085 200.498 30.455C200.138 29.795 199.958 29.045 199.958 28.205V28.115C199.958 26.495 200.603 25.205 201.893 24.245C203.213 23.255 205.088 22.76 207.518 22.76C209.168 22.76 210.638 22.88 211.928 23.12C213.218 23.33 214.343 23.555 215.303 23.795V26.405ZM237.723 14.12V11.69C236.583 11.66 235.488 11.81 234.438 12.14C233.418 12.44 232.473 12.905 231.603 13.535C230.733 14.135 229.953 14.87 229.263 15.74C228.573 16.61 228.003 17.555 227.553 18.575V12.05H225.348V35H227.553V25.595C227.553 23.735 227.823 22.1 228.363 20.69C228.903 19.25 229.623 18.05 230.523 17.09C231.453 16.1 232.518 15.365 233.718 14.885C234.918 14.375 236.178 14.12 237.498 14.12H237.723Z" fill="#010A49"/>
<path d="M115.259 63.071V62.971C115.259 53.121 107.659 45.571 96.6591 45.571H83.0091V80.571H96.6591C107.659 80.571 115.259 72.921 115.259 63.071ZM107.209 63.171C107.209 69.371 102.959 73.621 96.6591 73.621H90.7091V52.521H96.6591C102.959 52.521 107.209 56.871 107.209 63.071V63.171ZM148.77 80.571V73.721H129.77V66.371H146.27V59.521H129.77V52.421H148.52V45.571H122.12V80.571H148.77ZM180.917 70.221V70.121C180.917 64.021 176.917 61.471 169.817 59.621C163.767 58.071 162.267 57.321 162.267 55.021V54.921C162.267 53.221 163.817 51.871 166.767 51.871C169.717 51.871 172.767 53.171 175.867 55.321L179.867 49.521C176.317 46.671 171.967 45.071 166.867 45.071C159.717 45.071 154.617 49.271 154.617 55.621V55.721C154.617 62.671 159.167 64.621 166.217 66.421C172.067 67.921 173.267 68.921 173.267 70.871V70.971C173.267 73.021 171.367 74.271 168.217 74.271C164.217 74.271 160.917 72.621 157.767 70.021L153.217 75.471C157.417 79.221 162.767 81.071 168.067 81.071C175.617 81.071 180.917 77.171 180.917 70.221ZM214.249 80.571V73.721H195.249V66.371H211.749V59.521H195.249V52.421H213.999V45.571H187.599V80.571H214.249ZM241.445 68.471V45.571H233.545V68.121C233.545 72.171 231.745 73.921 228.845 73.921C226.395 73.921 224.445 72.621 222.445 70.421L217.595 75.821C219.995 78.671 223.595 81.071 229.045 81.071C236.445 81.071 241.445 76.971 241.445 68.471ZM284.968 63.071V62.971C284.968 53.021 277.218 44.971 266.418 44.971C255.618 44.971 247.768 53.121 247.768 63.071V63.171C247.768 73.121 255.518 81.171 266.318 81.171C277.118 81.171 284.968 73.021 284.968 63.071ZM276.918 63.171C276.918 69.171 272.618 74.071 266.418 74.071C260.218 74.071 255.818 69.071 255.818 63.071V62.971C255.818 56.971 260.118 52.071 266.318 52.071C272.518 52.071 276.918 57.071 276.918 63.071V63.171Z" fill="#010A49"/>
</svg>
