<svg width="58" height="42" viewBox="0 0 58 42" fill="none" xmlns="http://www.w3.org/2000/svg">
<path d="M38.6667 23.8636C38.6667 23.5852 38.576 23.3565 38.3948 23.1776C38.2135 22.9986 37.9819 22.9091 37.7 22.9091H30.9333V12.4091C30.9333 12.1506 30.8377 11.9268 30.6464 11.7379C30.455 11.549 30.2285 11.4545 29.9667 11.4545H24.1667C23.9049 11.4545 23.6783 11.549 23.487 11.7379C23.2957 11.9268 23.2 12.1506 23.2 12.4091V22.9091H16.4333C16.1715 22.9091 15.945 23.0036 15.7536 23.1925C15.5623 23.3814 15.4667 23.6051 15.4667 23.8636C15.4667 24.142 15.5573 24.3707 15.7385 24.5497L26.3719 35.0497C26.5531 35.2287 26.7847 35.3182 27.0667 35.3182C27.3486 35.3182 27.5802 35.2287 27.7615 35.0497L38.3646 24.5795C38.566 24.3409 38.6667 24.1023 38.6667 23.8636ZM58 30.5455C58 33.7074 56.8672 36.407 54.6016 38.6442C52.3359 40.8814 49.6021 42 46.4 42H13.5333C9.80764 42 6.62066 40.6925 3.9724 38.0774C1.32413 35.4624 0 32.3153 0 28.6364C0 26.0511 0.704861 23.6648 2.11458 21.4773C3.52431 19.2898 5.41736 17.6491 7.79375 16.5554C7.75347 15.9588 7.73333 15.5312 7.73333 15.2727C7.73333 11.0568 9.24375 7.45739 12.2646 4.47443C15.2854 1.49148 18.9306 0 23.2 0C26.3417 0 29.2165 0.865057 31.8245 2.59517C34.4325 4.32528 36.3306 6.62216 37.5187 9.4858C38.9486 8.25284 40.6201 7.63636 42.5333 7.63636C44.6681 7.63636 46.4906 8.3821 48.001 9.87358C49.5115 11.3651 50.2667 13.1648 50.2667 15.2727C50.2667 16.7841 49.8538 18.1562 49.0281 19.3892C51.6462 20.0057 53.796 21.353 55.4776 23.4311C57.1592 25.5092 58 27.8807 58 30.5455Z" fill="#6ABDFF"/>
</svg>
