<svg id="Layer_1" data-name="Layer 1" xmlns="http://www.w3.org/2000/svg" viewBox="0 0 1315.11 484.19"><defs><style>.cls-1{fill:#fff;}.cls-2{fill:#6abdff;}.cls-3{fill:#de1f1b;}</style></defs><g id="Layer_2" data-name="Layer 2"><g id="Layer_1-2" data-name="Layer 1-2"><path class="cls-1" d="M548.11,271.58H535.27l-7-16.68H495.59l-7.1,16.68H476.05L506.45,202H517.7ZM511.88,216.5,500,244.14h23.78Z"/><path class="cls-1" d="M609.11,254.6h-.4l-21.62-32.37v49.35h-12V202.49H588l21,32.67,21-32.67h13v69.09H631V222Z"/><path class="cls-1" d="M723.32,207.23a15.52,15.52,0,0,1,6.11,13,17.62,17.62,0,0,1-.83,5.63,16.22,16.22,0,0,1-2.16,4.3,15.17,15.17,0,0,1-3.13,3.22,26.72,26.72,0,0,1-3.67,2.37,34.08,34.08,0,0,1,5.54,2.51,18.22,18.22,0,0,1,4.32,3.4,14,14,0,0,1,2.8,4.68,18.49,18.49,0,0,1,1,6.26,17.58,17.58,0,0,1-1.83,8.18,16.71,16.71,0,0,1-5.17,6,23.82,23.82,0,0,1-8.08,3.65,41.24,41.24,0,0,1-10.44,1.23H675.83V202.49h30.94Q717.21,202.49,723.32,207.23Zm-9.48,22.14q3.54-2.33,3.54-7.19a7.8,7.8,0,0,0-3.09-6.61c-2.07-1.55-5.07-2.32-9-2.33H687.87V231.7H704.4Q710.3,231.7,713.84,229.37Zm3.85,29a8.11,8.11,0,0,0,3.55-7.16,8,8,0,0,0-3.5-6.9q-3.5-2.48-10.68-2.47H687.87v19H708q6.15,0,9.69-2.39Z"/><path class="cls-1" d="M820.24,241.67a39.1,39.1,0,0,1-2.13,13.52,26.47,26.47,0,0,1-6,9.73,24.17,24.17,0,0,1-9.33,5.82,36.91,36.91,0,0,1-12.29,1.92,36,36,0,0,1-12.14-1.92A24.4,24.4,0,0,1,769.1,265a25.72,25.72,0,0,1-5.92-9.52,38.36,38.36,0,0,1-2.07-13.18V202.49h12v39.28q0,9.67,4.67,14.71t12.9,5q8.15,0,12.81-4.84t4.66-14.41V202.49h12Z"/><path class="cls-1" d="M852,202.49h12v58.13h36.32v11H852Z"/><path class="cls-1" d="M994.35,271.58H981.52l-7-16.68H941.84l-7.11,16.68H922.29L952.7,202H964Zm-43.73-74.72h-9.28l11.45-14.41h11.06l11.45,14.41h-9.48l-7.6-6.62Zm7.5,19.64-11.84,27.64h23.79Z"/><path class="cls-1" d="M1069.46,202.49h12v69.09h-10.15l-38-49.16v49.16h-12V202.49h11.23l36.93,47.77Z"/><path class="cls-1" d="M1168.91,265.61a37,37,0,0,1-6.27,3.85,31.78,31.78,0,0,1-7.35,2.46,43,43,0,0,1-8.84.84,35,35,0,0,1-14-2.76,34.43,34.43,0,0,1-11.11-7.55,34.83,34.83,0,0,1-7.35-11.3,38.18,38.18,0,0,1,0-27.94,34.93,34.93,0,0,1,7.35-11.4,34.53,34.53,0,0,1,11.26-7.7,36,36,0,0,1,14.4-2.81,43,43,0,0,1,8.63.79,35.78,35.78,0,0,1,7.16,2.22,33.86,33.86,0,0,1,6,3.41,46.31,46.31,0,0,1,5.23,4.34l-7.8,9a38.93,38.93,0,0,0-8.78-6.22,22.86,22.86,0,0,0-10.56-2.37,21.61,21.61,0,0,0-9.13,1.93,22.64,22.64,0,0,0-7.26,5.23,23.41,23.41,0,0,0-4.73,7.75,26.7,26.7,0,0,0-1.68,9.57,27,27,0,0,0,1.68,9.63,23.64,23.64,0,0,0,4.73,7.84,22.31,22.31,0,0,0,7.26,5.29,21.6,21.6,0,0,0,9.13,1.92,22.87,22.87,0,0,0,10.86-2.42,43,43,0,0,0,9-6.56l7.8,7.89A44.39,44.39,0,0,1,1168.91,265.61Z"/><path class="cls-1" d="M1215.05,202.49v69.09h-12V202.49Z"/><path class="cls-1" d="M1314.84,271.58H1302l-7-16.68h-32.67l-7.11,16.68h-12.43l30.4-69.59h11.25Zm-36.22-55.08-11.85,27.64h23.79Z"/><path class="cls-1" d="M584.69,481.82V391.6l-38.89,59H545l-38.49-58.44v89.63h-30V343.63h32.77l36.33,58.43,36.32-58.43H614.7V481.82Z"/><path class="cls-1" d="M752.69,481.82l-12.63-31H681.62l-12.63,31H638l59.22-139.18h28l59.22,139.18ZM710.84,379.17,692.48,424H729.2Zm-12.24-46.4,22.31-34.94,25.86,11.25L721.5,332.77Z"/><path class="cls-1" d="M908,477.77q-14.7,6.42-33.66,6.42a78.77,78.77,0,0,1-29.51-5.33,68.14,68.14,0,0,1-22.9-14.81,66.65,66.65,0,0,1-14.9-22.5,74.42,74.42,0,0,1-5.33-28.43v-.4a70.64,70.64,0,0,1,43.43-65.83,73.39,73.39,0,0,1,29-5.63A101.41,101.41,0,0,1,891,342.55a79.18,79.18,0,0,1,14.12,3.65,66.41,66.41,0,0,1,12.24,5.92,92.61,92.61,0,0,1,11,8.09l-19.14,23.1a77.06,77.06,0,0,0-7.9-5.92,52.17,52.17,0,0,0-8.19-4.34,49,49,0,0,0-9.18-2.77,55.78,55.78,0,0,0-10.86-1,35.25,35.25,0,0,0-15.5,3.47,41.91,41.91,0,0,0-12.63,9.3,42.62,42.62,0,0,0-8.49,13.65,45.49,45.49,0,0,0-3.06,16.72v.39a48.7,48.7,0,0,0,3.06,17.52,41.44,41.44,0,0,0,8.69,13.94,39.51,39.51,0,0,0,13.22,9.21,42.34,42.34,0,0,0,16.88,3.26q17,0,28.63-8.35V428.52h-30.6V402.26h60v60A101.23,101.23,0,0,1,908,477.77Z"/><path class="cls-1" d="M965.89,481.82V343.63h30.4V481.82Z"/><path class="cls-1" d="M1143.17,469.78a65.67,65.67,0,0,1-12.54,7.79,64.69,64.69,0,0,1-14.9,4.94,89.3,89.3,0,0,1-18.16,1.68,71.63,71.63,0,0,1-28.24-5.53A68.14,68.14,0,0,1,1032,441a73,73,0,0,1-5.33-27.84v-.4A72.17,72.17,0,0,1,1032,385a71.39,71.39,0,0,1,14.81-22.7,68.48,68.48,0,0,1,22.7-15.4,74,74,0,0,1,29.22-5.63,91.1,91.1,0,0,1,17.67,1.58,74.31,74.31,0,0,1,14.51,4.34,63.64,63.64,0,0,1,12,6.72,80.24,80.24,0,0,1,10.26,8.68l-19.34,22.31a73.07,73.07,0,0,0-16.49-11.45,42,42,0,0,0-18.85-4.15,38.46,38.46,0,0,0-16.09,3.36,38,38,0,0,0-12.73,9.28,43.28,43.28,0,0,0-8.29,13.72,46.57,46.57,0,0,0-3,16.68v.39a47.14,47.14,0,0,0,3,16.78,43.69,43.69,0,0,0,8.19,13.82,38,38,0,0,0,28.92,12.84q11.85,0,20-4.35A77.5,77.5,0,0,0,1134.87,440l19.35,19.54A101,101,0,0,1,1143.17,469.78Z"/><path class="cls-1" d="M1283.33,481.82l-12.64-31h-58.43l-12.63,31h-31l59.22-139.18h28l59.22,139.18Zm-41.85-102.65L1223.12,424h36.71Z"/><path class="cls-2" d="M195.43,97.55c11.23.59,22,6.89,35.4,19.13C210.84,87.22,212,71.09,236,44.81c-29.44,20-45.54,18.81-71.83-5.19,20,29.46,18.82,45.58-5.15,71.86,14.42-9.78,25.65-14.5,36.44-13.93"/><path class="cls-2" d="M292.49,67.36C287.1,84,278.09,92,260.93,95.47c16.65,5.49,24.7,14.54,28.23,31.73,5.4-16.65,14.4-24.68,31.57-28.12-7.88-2.59-13.85-6-18.31-10.65C297.45,83.22,294.35,76.42,292.49,67.36Z"/><path class="cls-2" d="M290.83,10.47C278.26,12.8,270,9.82,261.8,0c2.27,12.59-.73,20.91-10.53,29.15,12.56-2.33,20.85.66,29,10.47-1.08-6-1-11,.46-15.45C282.37,19.17,285.66,14.81,290.83,10.47Z"/><path class="cls-1" d="M185.36,380.13a16.52,16.52,0,0,1-15.81.05L40.88,289.33a20.48,20.48,0,0,1-8-21.33c14.85-65.21,73.26-114,142.91-114,69.82,0,128.36,49.08,143,114.54a19.94,19.94,0,0,1-7.86,20.39Z"/><path class="cls-2" d="M354.72,435.76,327.36,269.67h-.05c-12.8-71.28-75.22-125.55-150.12-125.55C102.08,144.16,39.53,198.73,27,270.3l-.07-.06L.4,435.76c-4.32,30.29,27.22,54.31,58.7,44.72l107.57-32.21a41.17,41.17,0,0,1,23.71.05L296,480.48C327.51,490.07,359,466.05,354.72,435.76ZM186.31,372.17a15.69,15.69,0,0,1-15,.05l-122-86.16a19.4,19.4,0,0,1-7.63-20.23C55.75,204,111.15,157.69,177.19,157.69c66.22,0,121.73,46.54,135.64,108.62a18.92,18.92,0,0,1-7.46,19.34Z"/><path class="cls-3" d="M197.84,237.18V196.1a1.25,1.25,0,0,0-1.25-1.25H158.86a1.25,1.25,0,0,0-1.26,1.24h0v41.08a1.25,1.25,0,0,1-1.24,1.26h-41.1a1.25,1.25,0,0,0-1.25,1.25v37.72a1.25,1.25,0,0,0,1.24,1.26h41.1a1.25,1.25,0,0,1,1.25,1.25h0V321a1.25,1.25,0,0,0,1.25,1.25h37.72a1.25,1.25,0,0,0,1.26-1.24h0V279.93a1.25,1.25,0,0,1,1.24-1.26h41.1a1.25,1.25,0,0,0,1.25-1.25V239.7a1.25,1.25,0,0,0-1.24-1.26H199.09a1.25,1.25,0,0,1-1.25-1.25Z"/></g></g></svg>