<svg width="56" height="52" viewBox="0 0 56 52" fill="none" xmlns="http://www.w3.org/2000/svg">
<path d="M23.52 0C20.8495 0.00914247 18.2911 1.04009 16.4028 2.86798C14.5145 4.69586 13.4494 7.17239 13.44 9.7574C13.44 11.492 13.9485 13.1031 14.7706 14.5017C10.7363 16.7871 7.57792 20.0309 5.88 23.8514H5.6C5.452 23.8547 5.30485 23.8289 5.16744 23.7755C5.03003 23.7222 4.90522 23.6425 4.80054 23.5411C4.69586 23.4398 4.61348 23.319 4.55839 23.186C4.5033 23.053 4.47663 22.9105 4.48 22.7673C4.48 22.3856 4.6816 22.0821 4.97056 21.8869L2.37888 18.3634C1.64495 18.8574 1.04532 19.5159 0.631104 20.2827C0.216885 21.0495 0.000364077 21.9019 0 22.7673C0 25.4343 2.05632 27.6199 4.69056 28.0536C4.57632 28.8125 4.48 29.5693 4.48 30.3563C4.48 35.7598 7.44576 40.4433 11.76 43.9083C11.2179 46.0766 11.489 48.388 13.2294 50.075C14.5144 51.3081 16.2506 52 18.06 52C19.8694 52 21.6056 51.3081 22.8906 50.075L23.7306 49.2618C25.48 49.5741 27.2384 49.8711 29.12 49.8711C31.0016 49.8711 32.76 49.5741 34.5094 49.2618L35.3494 50.075C36.6344 51.3081 38.3706 52 40.18 52C41.9894 52 43.7256 51.3081 45.0106 50.075C46.7152 48.4227 46.9706 46.1785 46.48 44.0427C48.2763 42.6306 49.8142 40.9358 51.0294 39.0296H56V21.6831H50.8906C50.0772 20.4051 49.1136 19.2227 48.0189 18.1596L49.28 11.4508V8.67324H47.04C47.04 8.67324 41.6595 8.75997 37.0989 12.0623C35.9014 11.7279 34.6864 11.4558 33.4589 11.247C33.5485 10.7657 33.6 10.2648 33.6 9.7574C33.6 4.39517 29.0595 0 23.52 0ZM23.52 4.33662C26.6336 4.33662 29.12 6.74345 29.12 9.7574C29.12 10.1303 29.0506 10.486 28.9789 10.8416C25.3658 10.8589 21.9542 11.5354 18.8317 12.6716C18.2369 11.8088 17.9197 10.7947 17.92 9.7574C17.92 6.74345 20.4064 4.33662 23.52 4.33662ZM44.24 13.4175C44.2758 13.4088 44.2758 13.424 44.3094 13.4175L43.4694 18.3613L43.2611 19.5148L44.24 20.3279C45.7357 21.5818 46.971 23.0999 47.88 24.8011L48.5094 26.0197H51.52V34.693H48.5094L47.88 35.9137C46.7869 38.004 45.0621 39.8427 42.84 41.3996L41.2294 42.5531L42.2106 44.3159C42.7437 45.1876 42.6474 46.2631 41.8589 47.0263C41.6463 47.2409 41.391 47.4117 41.1084 47.5283C40.8259 47.645 40.5219 47.7051 40.2147 47.7051C39.9075 47.7051 39.6035 47.645 39.321 47.5283C39.0384 47.4117 38.7832 47.2409 38.5706 47.0263L36.96 45.4651L36.0506 44.6542L34.8589 44.9252C33.04 45.3307 31.1069 45.5345 29.12 45.5345C27.1887 45.5413 25.2628 45.3369 23.3789 44.9252L22.1917 44.6542L21.28 45.4673L19.6694 47.0242C19.4568 47.2391 19.2014 47.4101 18.9186 47.527C18.6359 47.6438 18.3316 47.7041 18.0242 47.7041C17.7167 47.7041 17.4124 47.6438 17.1297 47.527C16.8469 47.4101 16.5915 47.2391 16.3789 47.0242C16.0102 46.6786 15.7746 46.2215 15.711 45.7285C15.6475 45.2356 15.7598 44.7364 16.0294 44.3138L17.0106 42.5531L15.4 41.4017C11.3478 38.5526 8.96 34.667 8.96 30.3563C8.96 22.2425 17.7184 15.1782 29.12 15.1782C31.8752 15.1782 34.5005 15.5771 36.8906 16.3295L38.08 16.7372L39.0611 15.9241C40.6605 14.5429 42.6384 13.7991 44.24 13.4175ZM42.56 26.0197C41.328 26.0197 40.32 26.9955 40.32 28.188C40.32 29.3806 41.328 30.3563 42.56 30.3563C43.792 30.3563 44.8 29.3806 44.8 28.188C44.8 26.9955 43.792 26.0197 42.56 26.0197Z" fill="#6ABDFF"/>
</svg>
