<svg width="89" height="42" viewBox="0 0 89 42" fill="none" xmlns="http://www.w3.org/2000/svg">
<path d="M10.8499 36.7693V36.7293C10.8499 36.276 10.7499 35.896 10.5499 35.5893C10.3633 35.2826 10.1099 35.0226 9.78992 34.8093C9.46992 34.5826 9.10992 34.4026 8.70992 34.2693C8.30992 34.1226 7.90326 33.9893 7.48992 33.8693C7.12992 33.7626 6.77659 33.656 6.42992 33.5493C6.08326 33.4293 5.77659 33.296 5.50992 33.1493C5.25659 33.0026 5.04992 32.8293 4.88992 32.6293C4.72992 32.416 4.64992 32.1693 4.64992 31.8893V31.8493C4.64992 31.3426 4.85659 30.9226 5.26992 30.5893C5.69659 30.2426 6.26326 30.0693 6.96992 30.0693C7.51659 30.0693 8.05659 30.1626 8.58992 30.3493C9.13659 30.536 9.64326 30.7826 10.1099 31.0893L10.6299 30.2693C10.1233 29.9226 9.54326 29.6493 8.88992 29.4493C8.24992 29.2493 7.62326 29.1493 7.00992 29.1493C6.51659 29.1493 6.06326 29.2226 5.64992 29.3693C5.23659 29.5026 4.88326 29.696 4.58992 29.9493C4.29659 30.2026 4.06326 30.5026 3.88992 30.8493C3.72992 31.1826 3.64992 31.556 3.64992 31.9693V32.0093C3.64992 32.4626 3.74992 32.8426 3.94992 33.1493C4.16326 33.456 4.43659 33.716 4.76992 33.9293C5.10326 34.1293 5.47659 34.296 5.88992 34.4293C6.31659 34.5626 6.73659 34.6893 7.14992 34.8093C7.50992 34.916 7.84992 35.0226 8.16992 35.1293C8.48992 35.236 8.77659 35.3693 9.02992 35.5293C9.28326 35.6893 9.48326 35.876 9.62992 36.0893C9.77659 36.3026 9.84992 36.556 9.84992 36.8493V36.8893C9.84992 37.4893 9.60992 37.9626 9.12992 38.3093C8.66326 38.656 8.08326 38.8293 7.38992 38.8293C6.73659 38.8293 6.10326 38.716 5.48992 38.4893C4.87659 38.2493 4.28992 37.916 3.72992 37.4893L3.14992 38.2693C3.69659 38.7093 4.34326 39.0693 5.08992 39.3493C5.83659 39.616 6.58326 39.7493 7.32992 39.7493C7.82326 39.7493 8.28326 39.6826 8.70992 39.5493C9.13659 39.4026 9.50992 39.2026 9.82992 38.9493C10.1499 38.6826 10.3966 38.3693 10.5699 38.0093C10.7566 37.636 10.8499 37.2226 10.8499 36.7693ZM23.7513 34.4493V34.4093C23.7513 33.6893 23.618 33.0093 23.3513 32.3693C23.098 31.7293 22.738 31.1693 22.2713 30.6893C21.8047 30.2093 21.2513 29.8293 20.6113 29.5493C19.9847 29.256 19.2913 29.1093 18.5313 29.1093C17.7713 29.1093 17.0713 29.256 16.4313 29.5493C15.7913 29.8293 15.2313 30.216 14.7513 30.7093C14.2847 31.2026 13.918 31.7693 13.6513 32.4093C13.398 33.0493 13.2713 33.7293 13.2713 34.4493V34.4893C13.2713 35.2093 13.398 35.8893 13.6513 36.5293C13.918 37.1693 14.2847 37.7293 14.7513 38.2093C15.218 38.6893 15.7647 39.076 16.3913 39.3693C17.0313 39.6493 17.7313 39.7893 18.4913 39.7893C19.2513 39.7893 19.9513 39.6493 20.5913 39.3693C21.2313 39.076 21.7847 38.6826 22.2513 38.1893C22.7313 37.696 23.098 37.1293 23.3513 36.4893C23.618 35.8493 23.7513 35.1693 23.7513 34.4493ZM22.6913 34.4893C22.6913 35.0893 22.5847 35.656 22.3713 36.1893C22.1713 36.7226 21.8847 37.1893 21.5113 37.5893C21.1513 37.976 20.7113 38.2893 20.1913 38.5293C19.6847 38.756 19.1313 38.8693 18.5313 38.8693C17.9447 38.8693 17.3913 38.756 16.8713 38.5293C16.3647 38.3026 15.918 37.9893 15.5313 37.5893C15.158 37.1893 14.8647 36.7226 14.6513 36.1893C14.438 35.6426 14.3313 35.0626 14.3313 34.4493V34.4093C14.3313 33.8093 14.4313 33.2426 14.6313 32.7093C14.8447 32.176 15.1313 31.716 15.4913 31.3293C15.8647 30.9293 16.3047 30.616 16.8113 30.3893C17.3313 30.1493 17.8913 30.0293 18.4913 30.0293C19.078 30.0293 19.6247 30.1426 20.1313 30.3693C20.6513 30.596 21.098 30.9093 21.4713 31.3093C21.858 31.7093 22.158 32.1826 22.3713 32.7293C22.5847 33.2626 22.6913 33.836 22.6913 34.4493V34.4893ZM42.1843 39.5493V33.3693C42.1843 32.7293 42.091 32.1493 41.9043 31.6293C41.731 31.096 41.471 30.6493 41.1243 30.2893C40.791 29.916 40.3776 29.6293 39.8843 29.4293C39.4043 29.216 38.8643 29.1093 38.2643 29.1093C37.7843 29.1093 37.351 29.1693 36.9643 29.2893C36.591 29.4093 36.251 29.576 35.9443 29.7893C35.651 29.9893 35.391 30.2226 35.1643 30.4893C34.9376 30.756 34.7443 31.0293 34.5843 31.3093C34.4376 31.016 34.2576 30.736 34.0443 30.4693C33.8443 30.2026 33.6043 29.9693 33.3243 29.7693C33.0443 29.5693 32.7176 29.4093 32.3443 29.2893C31.9843 29.1693 31.5843 29.1093 31.1443 29.1093C30.691 29.1093 30.2843 29.1693 29.9243 29.2893C29.5776 29.396 29.271 29.5493 29.0043 29.7493C28.7376 29.936 28.4976 30.156 28.2843 30.4093C28.0843 30.6493 27.9043 30.9026 27.7443 31.1693V29.3493H26.7643V39.5493H27.7443V33.6693C27.7443 33.1493 27.8243 32.6693 27.9843 32.2293C28.1576 31.7893 28.391 31.4026 28.6843 31.0693C28.9776 30.736 29.3243 30.476 29.7243 30.2893C30.1243 30.1026 30.551 30.0093 31.0043 30.0093C31.9243 30.0093 32.651 30.316 33.1843 30.9293C33.7176 31.5293 33.9843 32.3626 33.9843 33.4293V39.5493H34.9643V33.6093C34.9643 33.036 35.051 32.5293 35.2243 32.0893C35.3976 31.636 35.631 31.256 35.9243 30.9493C36.2176 30.6426 36.5576 30.4093 36.9443 30.2493C37.3443 30.0893 37.7576 30.0093 38.1843 30.0093C39.131 30.0093 39.871 30.316 40.4043 30.9293C40.9376 31.5293 41.2043 32.3826 41.2043 33.4893V39.5493H42.1843ZM55.5677 34.4493V34.4093C55.5677 33.6893 55.4344 33.0093 55.1677 32.3693C54.9144 31.7293 54.5544 31.1693 54.0877 30.6893C53.6211 30.2093 53.0677 29.8293 52.4277 29.5493C51.8011 29.256 51.1077 29.1093 50.3477 29.1093C49.5877 29.1093 48.8877 29.256 48.2477 29.5493C47.6077 29.8293 47.0477 30.216 46.5677 30.7093C46.1011 31.2026 45.7344 31.7693 45.4677 32.4093C45.2144 33.0493 45.0877 33.7293 45.0877 34.4493V34.4893C45.0877 35.2093 45.2144 35.8893 45.4677 36.5293C45.7344 37.1693 46.1011 37.7293 46.5677 38.2093C47.0344 38.6893 47.5811 39.076 48.2077 39.3693C48.8477 39.6493 49.5477 39.7893 50.3077 39.7893C51.0677 39.7893 51.7677 39.6493 52.4077 39.3693C53.0477 39.076 53.6011 38.6826 54.0677 38.1893C54.5477 37.696 54.9144 37.1293 55.1677 36.4893C55.4344 35.8493 55.5677 35.1693 55.5677 34.4493ZM54.5077 34.4893C54.5077 35.0893 54.4011 35.656 54.1877 36.1893C53.9877 36.7226 53.7011 37.1893 53.3277 37.5893C52.9677 37.976 52.5277 38.2893 52.0077 38.5293C51.5011 38.756 50.9477 38.8693 50.3477 38.8693C49.7611 38.8693 49.2077 38.756 48.6877 38.5293C48.1811 38.3026 47.7344 37.9893 47.3477 37.5893C46.9744 37.1893 46.6811 36.7226 46.4677 36.1893C46.2544 35.6426 46.1477 35.0626 46.1477 34.4493V34.4093C46.1477 33.8093 46.2477 33.2426 46.4477 32.7093C46.6611 32.176 46.9477 31.716 47.3077 31.3293C47.6811 30.9293 48.1211 30.616 48.6277 30.3893C49.1477 30.1493 49.7077 30.0293 50.3077 30.0293C50.8944 30.0293 51.4411 30.1426 51.9477 30.3693C52.4677 30.596 52.9144 30.9093 53.2877 31.3093C53.6744 31.7093 53.9744 32.1826 54.1877 32.7293C54.4011 33.2626 54.5077 33.836 54.5077 34.4493V34.4893ZM65.4007 36.7693V36.7293C65.4007 36.276 65.3007 35.896 65.1007 35.5893C64.914 35.2826 64.6607 35.0226 64.3407 34.8093C64.0207 34.5826 63.6607 34.4026 63.2607 34.2693C62.8607 34.1226 62.454 33.9893 62.0407 33.8693C61.6807 33.7626 61.3274 33.656 60.9807 33.5493C60.634 33.4293 60.3274 33.296 60.0607 33.1493C59.8074 33.0026 59.6007 32.8293 59.4407 32.6293C59.2807 32.416 59.2007 32.1693 59.2007 31.8893V31.8493C59.2007 31.3426 59.4074 30.9226 59.8207 30.5893C60.2474 30.2426 60.814 30.0693 61.5207 30.0693C62.0674 30.0693 62.6074 30.1626 63.1407 30.3493C63.6874 30.536 64.194 30.7826 64.6607 31.0893L65.1807 30.2693C64.674 29.9226 64.094 29.6493 63.4407 29.4493C62.8007 29.2493 62.174 29.1493 61.5607 29.1493C61.0674 29.1493 60.614 29.2226 60.2007 29.3693C59.7874 29.5026 59.434 29.696 59.1407 29.9493C58.8474 30.2026 58.614 30.5026 58.4407 30.8493C58.2807 31.1826 58.2007 31.556 58.2007 31.9693V32.0093C58.2007 32.4626 58.3007 32.8426 58.5007 33.1493C58.714 33.456 58.9874 33.716 59.3207 33.9293C59.654 34.1293 60.0274 34.296 60.4407 34.4293C60.8674 34.5626 61.2874 34.6893 61.7007 34.8093C62.0607 34.916 62.4007 35.0226 62.7207 35.1293C63.0407 35.236 63.3274 35.3693 63.5807 35.5293C63.834 35.6893 64.034 35.876 64.1807 36.0893C64.3274 36.3026 64.4007 36.556 64.4007 36.8493V36.8893C64.4007 37.4893 64.1607 37.9626 63.6807 38.3093C63.214 38.656 62.634 38.8293 61.9407 38.8293C61.2874 38.8293 60.654 38.716 60.0407 38.4893C59.4274 38.2493 58.8407 37.916 58.2807 37.4893L57.7007 38.2693C58.2474 38.7093 58.894 39.0693 59.6407 39.3493C60.3874 39.616 61.134 39.7493 61.8807 39.7493C62.374 39.7493 62.834 39.6826 63.2607 39.5493C63.6874 39.4026 64.0607 39.2026 64.3807 38.9493C64.7007 38.6826 64.9474 38.3693 65.1207 38.0093C65.3074 37.636 65.4007 37.2226 65.4007 36.7693Z" fill="white"/>
<path d="M20.175 21.0974L18.375 19.5724C19.375 18.1224 19.925 16.3724 19.925 14.5474V14.4974C19.925 9.52236 16.05 5.49736 10.65 5.49736C5.25 5.49736 1.325 9.57236 1.325 14.5474V14.5974C1.325 19.5724 5.2 23.5974 10.6 23.5974C12.55 23.5974 14.325 23.0474 15.8 22.0974L17.725 23.8224L20.175 21.0974ZM15.9 14.5974C15.9 15.4724 15.75 16.2724 15.425 16.9974L12.55 14.3974L10.1 17.1474L12.95 19.5724C12.275 19.8724 11.5 20.0474 10.65 20.0474C7.55 20.0474 5.35 17.5474 5.35 14.5474V14.4974C5.35 11.4974 7.5 9.04736 10.6 9.04736C13.7 9.04736 15.9 11.5474 15.9 14.5474V14.5974ZM38.3152 15.6724V5.79736H34.4652V15.8224C34.4652 18.5974 33.0402 20.0224 30.6902 20.0224C28.3402 20.0224 26.9152 18.5474 26.9152 15.6974V5.79736H23.0652V15.7974C23.0652 20.9474 25.9402 23.5724 30.6402 23.5724C35.3402 23.5724 38.3152 20.9724 38.3152 15.6724ZM55.5617 23.2974V19.8724H46.0617V16.1974H54.3117V12.7724H46.0617V9.22236H55.4367V5.79736H42.2367V23.2974H55.5617ZM76.4848 23.2974V5.79736H72.3348L67.7348 13.1974L63.1348 5.79736H58.9848V23.2974H62.7598V11.9474L67.6348 19.3474H67.7348L72.6598 11.8724V23.2974H76.4848Z" fill="white"/>
</svg>
