<svg width="162" height="45" viewBox="0 0 162 45" fill="none" xmlns="http://www.w3.org/2000/svg">
<path d="M10.0745 5.72632L7.32688 12.5834L0 15.1548L7.32688 17.7262L10.0745 24.5833L12.822 17.7262L20.1489 15.1548L12.822 12.5834L10.0745 5.72632Z" fill="#6ABDFF"/>
<path d="M20.1488 19.8689L18.775 23.2974L15.1116 24.5831L18.775 25.8688L20.1488 29.2974L21.5226 25.8688L25.1861 24.5831L21.5226 23.2974L20.1488 19.8689Z" fill="#6ABDFF"/>
<path d="M38.4479 6.01736V4.93736C37.9412 4.92403 37.4546 4.9907 36.9879 5.13736C36.5346 5.2707 36.1146 5.47736 35.7279 5.75736C35.3412 6.02403 34.9946 6.3507 34.6879 6.73736C34.3812 7.12403 34.1279 7.54403 33.9279 7.99736V5.09736H32.9479V15.2974H33.9279V11.1174C33.9279 10.2907 34.0479 9.56403 34.2879 8.93736C34.5279 8.29736 34.8479 7.76403 35.2479 7.33736C35.6612 6.89736 36.1346 6.5707 36.6679 6.35736C37.2012 6.1307 37.7612 6.01736 38.3479 6.01736H38.4479ZM40.7879 10.5974H49.2479C49.2612 10.5174 49.2679 10.4574 49.2679 10.4174C49.2679 10.364 49.2679 10.304 49.2679 10.2374V10.1974C49.2679 9.43736 49.1546 8.73736 48.9279 8.09736C48.7146 7.44403 48.4012 6.87736 47.9879 6.39736C47.5879 5.91736 47.1012 5.54403 46.5279 5.27736C45.9546 4.99736 45.3079 4.85736 44.5879 4.85736C43.8946 4.85736 43.2546 4.99736 42.6679 5.27736C42.0812 5.55736 41.5679 5.93736 41.1279 6.41736C40.7012 6.89736 40.3612 7.46403 40.1079 8.11736C39.8679 8.75736 39.7479 9.44403 39.7479 10.1774V10.2174C39.7479 11.0174 39.8812 11.744 40.1479 12.3974C40.4146 13.0507 40.7746 13.6107 41.2279 14.0774C41.6946 14.544 42.2279 14.904 42.8279 15.1574C43.4412 15.4107 44.0812 15.5374 44.7479 15.5374C45.7212 15.5374 46.5346 15.3574 47.1879 14.9974C47.8546 14.6374 48.4479 14.1774 48.9679 13.6174L48.2879 13.0174C47.8612 13.4707 47.3679 13.8507 46.8079 14.1574C46.2612 14.464 45.5879 14.6174 44.7879 14.6174C44.2812 14.6174 43.7946 14.5307 43.3279 14.3574C42.8746 14.1707 42.4679 13.904 42.1079 13.5574C41.7479 13.2107 41.4479 12.7907 41.2079 12.2974C40.9679 11.804 40.8279 11.2374 40.7879 10.5974ZM40.7879 9.71736C40.8279 9.15736 40.9546 8.63736 41.1679 8.15736C41.3812 7.66403 41.6479 7.24403 41.9679 6.89736C42.3012 6.53736 42.6879 6.25736 43.1279 6.05736C43.5679 5.85736 44.0412 5.75736 44.5479 5.75736C45.1346 5.75736 45.6479 5.8707 46.0879 6.09736C46.5279 6.3107 46.8946 6.60403 47.1879 6.97736C47.4946 7.33736 47.7279 7.75736 47.8879 8.23736C48.0612 8.70403 48.1679 9.19736 48.2079 9.71736H40.7879ZM60.0876 15.2974V8.93736C60.0876 7.60403 59.7076 6.60403 58.9476 5.93736C58.1876 5.2707 57.1476 4.93736 55.8276 4.93736C55.1209 4.93736 54.4809 5.01736 53.9076 5.17736C53.3342 5.33736 52.7676 5.5507 52.2076 5.81736L52.5676 6.67736C53.0342 6.43736 53.5276 6.24403 54.0476 6.09736C54.5676 5.93736 55.1409 5.85736 55.7676 5.85736C56.8209 5.85736 57.6409 6.11736 58.2276 6.63736C58.8276 7.15736 59.1276 7.93736 59.1276 8.97736V9.41736C58.6342 9.28403 58.1276 9.17736 57.6076 9.09736C57.0876 9.01736 56.4676 8.97736 55.7476 8.97736C55.0809 8.97736 54.4742 9.0507 53.9276 9.19736C53.3809 9.34403 52.9142 9.55736 52.5276 9.83736C52.1409 10.1174 51.8342 10.464 51.6076 10.8774C51.3942 11.2907 51.2876 11.764 51.2876 12.2974V12.3374C51.2876 12.8707 51.4009 13.3374 51.6276 13.7374C51.8676 14.1374 52.1742 14.4707 52.5476 14.7374C52.9209 15.004 53.3409 15.204 53.8076 15.3374C54.2742 15.4707 54.7476 15.5374 55.2276 15.5374C55.7076 15.5374 56.1476 15.4774 56.5476 15.3574C56.9609 15.2507 57.3276 15.1107 57.6476 14.9374C57.9676 14.7507 58.2476 14.544 58.4876 14.3174C58.7409 14.0774 58.9542 13.8374 59.1276 13.5974V15.2974H60.0876ZM59.1476 11.4774C59.1476 11.944 59.0409 12.3707 58.8276 12.7574C58.6276 13.144 58.3476 13.4774 57.9876 13.7574C57.6409 14.024 57.2342 14.2374 56.7676 14.3974C56.3009 14.544 55.8076 14.6174 55.2876 14.6174C54.9009 14.6174 54.5276 14.564 54.1676 14.4574C53.8076 14.3507 53.4876 14.1974 53.2076 13.9974C52.9409 13.7974 52.7276 13.5574 52.5676 13.2774C52.4076 12.984 52.3276 12.6507 52.3276 12.2774V12.2374C52.3276 11.5174 52.6142 10.944 53.1876 10.5174C53.7742 10.0774 54.6076 9.85736 55.6876 9.85736C56.4209 9.85736 57.0742 9.9107 57.6476 10.0174C58.2209 10.1107 58.7209 10.2107 59.1476 10.3174V11.4774ZM64.732 15.2974V0.697363H63.752V15.2974H64.732ZM69.8324 2.43736V1.09736H68.6124V2.43736H69.8324ZM69.7124 15.2974V5.09736H68.7324V15.2974H69.7124ZM81.6929 15.2974V14.4174H74.3329L81.6929 5.65736V5.09736H73.1529V5.97736H80.2329L72.8729 14.7374V15.2974H81.6929ZM92.6071 15.2974V8.93736C92.6071 7.60403 92.2271 6.60403 91.4671 5.93736C90.7071 5.2707 89.6671 4.93736 88.3471 4.93736C87.6404 4.93736 87.0004 5.01736 86.4271 5.17736C85.8538 5.33736 85.2871 5.5507 84.7271 5.81736L85.0871 6.67736C85.5538 6.43736 86.0471 6.24403 86.5671 6.09736C87.0871 5.93736 87.6604 5.85736 88.2871 5.85736C89.3404 5.85736 90.1604 6.11736 90.7471 6.63736C91.3471 7.15736 91.6471 7.93736 91.6471 8.97736V9.41736C91.1538 9.28403 90.6471 9.17736 90.1271 9.09736C89.6071 9.01736 88.9871 8.97736 88.2671 8.97736C87.6004 8.97736 86.9938 9.0507 86.4471 9.19736C85.9004 9.34403 85.4338 9.55736 85.0471 9.83736C84.6604 10.1174 84.3538 10.464 84.1271 10.8774C83.9138 11.2907 83.8071 11.764 83.8071 12.2974V12.3374C83.8071 12.8707 83.9204 13.3374 84.1471 13.7374C84.3871 14.1374 84.6938 14.4707 85.0671 14.7374C85.4404 15.004 85.8604 15.204 86.3271 15.3374C86.7938 15.4707 87.2671 15.5374 87.7471 15.5374C88.2271 15.5374 88.6671 15.4774 89.0671 15.3574C89.4804 15.2507 89.8471 15.1107 90.1671 14.9374C90.4871 14.7507 90.7671 14.544 91.0071 14.3174C91.2604 14.0774 91.4738 13.8374 91.6471 13.5974V15.2974H92.6071ZM91.6671 11.4774C91.6671 11.944 91.5604 12.3707 91.3471 12.7574C91.1471 13.144 90.8671 13.4774 90.5071 13.7574C90.1604 14.024 89.7538 14.2374 89.2871 14.3974C88.8204 14.544 88.3271 14.6174 87.8071 14.6174C87.4204 14.6174 87.0471 14.564 86.6871 14.4574C86.3271 14.3507 86.0071 14.1974 85.7271 13.9974C85.4604 13.7974 85.2471 13.5574 85.0871 13.2774C84.9271 12.984 84.8471 12.6507 84.8471 12.2774V12.2374C84.8471 11.5174 85.1338 10.944 85.7071 10.5174C86.2938 10.0774 87.1271 9.85736 88.2071 9.85736C88.9404 9.85736 89.5938 9.9107 90.1671 10.0174C90.7404 10.1107 91.2404 10.2107 91.6671 10.3174V11.4774ZM101.631 6.01736V4.93736C101.125 4.92403 100.638 4.9907 100.171 5.13736C99.7182 5.2707 99.2982 5.47736 98.9115 5.75736C98.5248 6.02403 98.1782 6.3507 97.8715 6.73736C97.5648 7.12403 97.3115 7.54403 97.1115 7.99736V5.09736H96.1315V15.2974H97.1115V11.1174C97.1115 10.2907 97.2315 9.56403 97.4715 8.93736C97.7115 8.29736 98.0315 7.76403 98.4315 7.33736C98.8448 6.89736 99.3182 6.5707 99.8515 6.35736C100.385 6.1307 100.945 6.01736 101.531 6.01736H101.631Z" fill="white"/>
<path d="M49.4364 29.7925V29.7425C49.4364 24.8175 45.6364 21.0425 40.1364 21.0425H33.3114V38.5425H40.1364C45.6364 38.5425 49.4364 34.7175 49.4364 29.7925ZM45.4114 29.8425C45.4114 32.9425 43.2864 35.0675 40.1364 35.0675H37.1614V24.5175H40.1364C43.2864 24.5175 45.4114 26.6925 45.4114 29.7925V29.8425ZM66.1921 38.5425V35.1175H56.6921V31.4425H64.9421V28.0175H56.6921V24.4675H66.0671V21.0425H52.8671V38.5425H66.1921ZM82.2651 33.3675V33.3175C82.2651 30.2675 80.2651 28.9925 76.7151 28.0675C73.6901 27.2925 72.9401 26.9175 72.9401 25.7675V25.7175C72.9401 24.8675 73.7151 24.1925 75.1901 24.1925C76.6651 24.1925 78.1901 24.8425 79.7401 25.9175L81.7401 23.0175C79.9651 21.5925 77.7901 20.7925 75.2401 20.7925C71.6651 20.7925 69.1151 22.8925 69.1151 26.0675V26.1175C69.1151 29.5925 71.3901 30.5675 74.9151 31.4675C77.8401 32.2175 78.4401 32.7175 78.4401 33.6925V33.7425C78.4401 34.7675 77.4901 35.3925 75.9151 35.3925C73.9151 35.3925 72.2651 34.5675 70.6901 33.2675L68.4151 35.9925C70.5151 37.8675 73.1901 38.7925 75.8401 38.7925C79.6151 38.7925 82.2651 36.8425 82.2651 33.3675ZM98.9313 38.5425V35.1175H89.4313V31.4425H97.6813V28.0175H89.4313V24.4675H98.8063V21.0425H85.6063V38.5425H98.9313ZM112.529 32.4925V21.0425H108.579V32.3175C108.579 34.3425 107.679 35.2175 106.229 35.2175C105.004 35.2175 104.029 34.5675 103.029 33.4675L100.604 36.1675C101.804 37.5925 103.604 38.7925 106.329 38.7925C110.029 38.7925 112.529 36.7425 112.529 32.4925ZM134.291 29.7925V29.7425C134.291 24.7675 130.416 20.7425 125.016 20.7425C119.616 20.7425 115.691 24.8175 115.691 29.7925V29.8425C115.691 34.8175 119.566 38.8425 124.966 38.8425C130.366 38.8425 134.291 34.7675 134.291 29.7925ZM130.266 29.8425C130.266 32.8425 128.116 35.2925 125.016 35.2925C121.916 35.2925 119.716 32.7925 119.716 29.7925V29.7425C119.716 26.7425 121.866 24.2925 124.966 24.2925C128.066 24.2925 130.266 26.7925 130.266 29.7925V29.8425Z" fill="white"/>
</svg>
