<svg width="97" height="94" viewBox="0 0 97 94" fill="none" xmlns="http://www.w3.org/2000/svg">
<path d="M68.75 50.4167C82.9125 37.5375 96.25 25.4833 96.25 15.125C96.25 6.64583 89.6042 0 81.125 0C76.3583 0 71.7292 2.24583 68.75 5.72917C65.725 2.24583 61.1417 0 56.375 0C47.8958 0 41.25 6.64583 41.25 15.125C41.25 25.4833 54.5875 37.5375 68.75 50.4167ZM56.375 9.16667C58.3917 9.16667 60.4542 10.1292 61.7833 11.6875L68.75 19.8917L75.7167 11.6875C77.0458 10.1292 79.1083 9.16667 81.125 9.16667C84.5167 9.16667 87.0833 11.7333 87.0833 15.125C87.0833 20.2583 77.7333 29.6542 68.75 37.9958C59.7667 29.6542 50.4167 20.2125 50.4167 15.125C50.4167 11.7333 52.9833 9.16667 56.375 9.16667ZM82.5 64.1667H73.3333C73.3333 58.6667 69.8958 53.7167 64.7625 51.7917L36.5292 41.25H0V91.6667H27.5V85.0667L59.5833 93.9583L96.25 82.5V77.9167C96.25 70.3083 90.1083 64.1667 82.5 64.1667ZM9.16667 82.5V50.4167H18.3333V82.5H9.16667ZM59.4458 84.3792L27.5 75.5333V50.4167H34.8792L61.5542 60.3625C63.1125 60.9583 64.1667 62.4708 64.1667 64.1667C64.1667 64.1667 55.0458 63.9375 53.625 63.4792L42.7167 59.8583L39.8292 68.5667L50.7375 72.1875C53.075 72.9667 55.5042 73.3792 57.9792 73.3792H82.5C84.2875 73.3792 85.8917 74.4333 86.625 75.9458L59.4458 84.3792Z" fill="#EDF0FD"/>
</svg>
